<?xml version="1.0" encoding="UTF-8"?>
<svg id="_图层_2" data-name="图层 2" xmlns="http://www.w3.org/2000/svg" xmlns:xlink="http://www.w3.org/1999/xlink" viewBox="0 0 32.41 45.63">
  <defs>
    <style>
      .cls-1 {
        fill: #4e4354;
      }

      .cls-1, .cls-2, .cls-3, .cls-4, .cls-5, .cls-6 {
        stroke-width: 0px;
      }

      .cls-2 {
        fill: url(#radial-gradient-2);
      }

      .cls-3 {
        fill: url(#radial-gradient);
      }

      .cls-4 {
        fill: #5c4034;
        fill-rule: evenodd;
      }

      .cls-5 {
        fill: url(#radial-gradient-3);
      }

      .cls-6 {
        fill: url(#radial-gradient-4);
      }
    </style>
    <radialGradient id="radial-gradient" cx="-96.7" cy="633.1" fx="-96.7" fy="633.1" r=".8" gradientTransform="translate(-3020.71 19907.91) rotate(-180) scale(31.41)" gradientUnits="userSpaceOnUse">
      <stop offset="0" stop-color="#fcf5f1"/>
      <stop offset="1" stop-color="#f4e2d7"/>
    </radialGradient>
    <radialGradient id="radial-gradient-2" cx="-96.7" cy="633.1" fx="-96.7" fy="633.1" r=".8" gradientTransform="translate(-3020.71 19907.91) rotate(-180) scale(31.41)" gradientUnits="userSpaceOnUse">
      <stop offset="0" stop-color="#d09484"/>
      <stop offset="1" stop-color="#cc8a77"/>
    </radialGradient>
    <radialGradient id="radial-gradient-3" cx="-96.7" cy="633.1" fx="-96.7" fy="633.1" r=".8" gradientTransform="translate(-3020.71 19907.91) rotate(-180) scale(31.41)" gradientUnits="userSpaceOnUse">
      <stop offset="0" stop-color="#aeafc5"/>
      <stop offset="1" stop-color="#a9a4b5"/>
    </radialGradient>
    <radialGradient id="radial-gradient-4" cx="-96.7" cy="633.1" fx="-96.7" fy="633.1" r=".8" gradientTransform="translate(-3020.71 19907.91) rotate(-180) scale(31.41)" gradientUnits="userSpaceOnUse">
      <stop offset="0" stop-color="#937584"/>
      <stop offset="1" stop-color="#916f7c"/>
    </radialGradient>
  </defs>
  <g id="Layer_2" data-name="Layer 2">
    <g id="back">
      <path class="cls-4" d="m1.2,3.6H0v38.42h1.2v1.2h1.2v1.2h1.2v1.21h25.21v-1.21h1.2v-1.2h1.2v-1.2h1.2V3.6h-1.2v-1.2h-1.2v-1.2h-1.2V0H3.6v1.21h-1.2v1.2h-1.2v1.2h0Zm1.2-1.2h1.2v-1.2h25.21v1.2h1.2v1.2h1.2v38.42h-1.2v1.2h-1.2v1.2H3.6v-1.2h-1.2v-1.2h-1.2V3.6h1.2v-1.2h0Z"/>
      <path class="cls-3" d="m4.8,42.02h-1.2v1.2h1.2v-1.2h0Zm2.4,0h-1.21v1.2h1.21v-1.2h0Zm2.4,0h-1.21v1.2h1.21v-1.2h0Zm2.4,0h-1.2v1.2h1.2v-1.2h0Zm2.4,0h-1.2v1.2h1.2v-1.2h0Zm2.4,0h-1.2v1.2h1.2v-1.2h0Zm2.4,0h-1.21v1.2h1.21v-1.2h0Zm2.4,0h-1.2v1.2h1.2v-1.2h0Zm2.4,0h-1.2v1.2h1.2v-1.2h0Zm2.4,0h-1.21v1.2h1.21v-1.2h0Zm2.4,0h-1.2v1.2h1.2v-1.2h0Zm-24.01-2.4h-1.2v1.2h1.2v-1.2h0Zm2.4,0h-1.21v1.2h1.21v-1.2h0Zm2.4,0h-1.21v1.2h1.21v-1.2h0Zm2.4,0h-1.2v1.2h1.2v-1.2h0Zm2.4,0h-1.2v1.2h1.2v-1.2h0Zm2.4,0h-1.2v1.2h1.2v-1.2h0Zm2.4,0h-1.21v1.2h1.21v-1.2h0Zm2.4,0h-1.2v1.2h1.2v-1.2h0Zm2.4,0h-1.2v1.2h1.2v-1.2h0Zm2.4,0h-1.21v1.2h1.21v-1.2h0Zm2.4,0h-1.2v1.2h1.2v-1.2h0Zm2.4,0h-1.2v1.2h1.2v-1.2h0Zm-26.41-2.4h-1.2v1.2h1.2v-1.2h0Zm2.4,0h-1.21v1.2h1.21v-1.2h0Zm2.4,0h-1.21v1.2h1.21v-1.2h0Zm2.4,0h-1.2v1.2h1.2v-1.2h0Zm2.4,0h-1.2v1.2h1.2v-1.2h0Zm2.4,0h-1.2v1.2h1.2v-1.2h0Zm2.4,0h-1.21v1.2h1.21v-1.2h0Zm2.4,0h-1.2v1.2h1.2v-1.2h0Zm2.4,0h-1.2v1.2h1.2v-1.2h0Zm2.4,0h-1.21v1.2h1.21v-1.2h0Zm2.4,0h-1.2v1.2h1.2v-1.2h0Zm2.4,0h-1.2v1.2h1.2v-1.2h0Zm-26.41-2.4h-1.2v1.21h1.2v-1.21h0Zm2.4,0h-1.21v1.21h1.21v-1.21h0Zm2.4,0h-1.21v1.21h1.21v-1.21h0Zm2.4,0h-1.2v1.21h1.2v-1.21h0Zm2.4,0h-1.2v1.21h1.2v-1.21h0Zm2.4,0h-1.2v1.21h1.2v-1.21h0Zm2.4,0h-1.21v1.21h1.21v-1.21h0Zm2.4,0h-1.2v1.21h1.2v-1.21h0Zm2.4,0h-1.2v1.21h1.2v-1.21h0Zm2.4,0h-1.21v1.21h1.21v-1.21h0Zm2.4,0h-1.2v1.21h1.2v-1.21h0Zm2.4,0h-1.2v1.21h1.2v-1.21h0Zm-26.41-2.4h-1.2v1.2h1.2v-1.2h0Zm2.4,0h-1.21v1.2h1.21v-1.2h0Zm2.4,0h-1.21v1.2h1.21v-1.2h0Zm2.4,0h-1.2v1.2h1.2v-1.2h0Zm2.4,0h-1.2v1.2h1.2v-1.2h0Zm2.4,0h-1.2v1.2h1.2v-1.2h0Zm2.4,0h-1.21v1.2h1.21v-1.2h0Zm2.4,0h-1.2v1.2h1.2v-1.2h0Zm2.4,0h-1.2v1.2h1.2v-1.2h0Zm2.4,0h-1.21v1.2h1.21v-1.2h0Zm2.4,0h-1.2v1.2h1.2v-1.2h0Zm2.4,0h-1.2v1.2h1.2v-1.2h0Zm-26.41-2.4h-1.2v1.2h1.2v-1.2h0Zm2.4,0h-1.21v1.2h1.21v-1.2h0Zm2.4,0h-1.21v1.2h1.21v-1.2h0Zm2.4,0h-1.2v1.2h1.2v-1.2h0Zm2.4,0h-1.2v1.2h1.2v-1.2h0Zm2.4,0h-1.2v1.2h1.2v-1.2h0Zm2.4,0h-1.21v1.2h1.21v-1.2h0Zm2.4,0h-1.2v1.2h1.2v-1.2h0Zm2.4,0h-1.2v1.2h1.2v-1.2h0Zm2.4,0h-1.21v1.2h1.21v-1.2h0Zm2.4,0h-1.2v1.2h1.2v-1.2h0Zm2.4,0h-1.2v1.2h1.2v-1.2h0Zm-26.41-2.4h-1.2v1.2h1.2v-1.2h0Zm2.4,0h-1.21v1.2h1.21v-1.2h0Zm2.4,0h-1.21v1.2h1.21v-1.2h0Zm2.4,0h-1.2v1.2h1.2v-1.2h0Zm2.4,0h-1.2v1.2h1.2v-1.2h0Zm2.4,0h-1.2v1.2h1.2v-1.2h0Zm2.4,0h-1.21v1.2h1.21v-1.2h0Zm2.4,0h-1.2v1.2h1.2v-1.2h0Zm2.4,0h-1.2v1.2h1.2v-1.2h0Zm2.4,0h-1.21v1.2h1.21v-1.2h0Zm2.4,0h-1.2v1.2h1.2v-1.2h0Zm2.4,0h-1.2v1.2h1.2v-1.2h0Zm-26.41-2.4h-1.2v1.2h1.2v-1.2h0Zm2.4,0h-1.21v1.2h1.21v-1.2h0Zm2.4,0h-1.21v1.2h1.21v-1.2h0Zm2.4,0h-1.2v1.2h1.2v-1.2h0Zm2.4,0h-1.2v1.2h1.2v-1.2h0Zm2.4,0h-1.2v1.2h1.2v-1.2h0Zm2.4,0h-1.21v1.2h1.21v-1.2h0Zm2.4,0h-1.2v1.2h1.2v-1.2h0Zm2.4,0h-1.2v1.2h1.2v-1.2h0Zm2.4,0h-1.21v1.2h1.21v-1.2h0Zm2.4,0h-1.2v1.2h1.2v-1.2h0Zm2.4,0h-1.2v1.2h1.2v-1.2h0Zm-26.41-2.4h-1.2v1.2h1.2v-1.2h0Zm2.4,0h-1.21v1.2h1.21v-1.2h0Zm2.4,0h-1.21v1.2h1.21v-1.2h0Zm2.4,0h-1.2v1.2h1.2v-1.2h0Zm2.4,0h-1.2v1.2h1.2v-1.2h0Zm2.4,0h-1.2v1.2h1.2v-1.2h0Zm2.4,0h-1.21v1.2h1.21v-1.2h0Zm2.4,0h-1.2v1.2h1.2v-1.2h0Zm2.4,0h-1.2v1.2h1.2v-1.2h0Zm2.4,0h-1.21v1.2h1.21v-1.2h0Zm2.4,0h-1.2v1.2h1.2v-1.2h0Zm2.4,0h-1.2v1.2h1.2v-1.2h0Zm-26.41-2.4h-1.2v1.2h1.2v-1.2h0Zm2.4,0h-1.21v1.2h1.21v-1.2h0Zm2.4,0h-1.21v1.2h1.21v-1.2h0Zm2.4,0h-1.2v1.2h1.2v-1.2h0Zm2.4,0h-1.2v1.2h1.2v-1.2h0Zm2.4,0h-1.2v1.2h1.2v-1.2h0Zm2.4,0h-1.21v1.2h1.21v-1.2h0Zm2.4,0h-1.2v1.2h1.2v-1.2h0Zm2.4,0h-1.2v1.2h1.2v-1.2h0Zm2.4,0h-1.21v1.2h1.21v-1.2h0Zm2.4,0h-1.2v1.2h1.2v-1.2h0Zm2.4,0h-1.2v1.2h1.2v-1.2h0Zm-26.41-2.4h-1.2v1.2h1.2v-1.2h0Zm2.4,0h-1.21v1.2h1.21v-1.2h0Zm2.4,0h-1.21v1.2h1.21v-1.2h0Zm2.4,0h-1.2v1.2h1.2v-1.2h0Zm2.4,0h-1.2v1.2h1.2v-1.2h0Zm2.4,0h-1.2v1.2h1.2v-1.2h0Zm2.4,0h-1.21v1.2h1.21v-1.2h0Zm2.4,0h-1.2v1.2h1.2v-1.2h0Zm2.4,0h-1.2v1.2h1.2v-1.2h0Zm2.4,0h-1.21v1.2h1.21v-1.2h0Zm2.4,0h-1.2v1.2h1.2v-1.2h0Zm2.4,0h-1.2v1.2h1.2v-1.2h0Zm-26.41-2.4h-1.2v1.21h1.2v-1.21h0Zm2.4,0h-1.21v1.21h1.21v-1.21h0Zm2.4,0h-1.21v1.21h1.21v-1.21h0Zm2.4,0h-1.2v1.21h1.2v-1.21h0Zm2.4,0h-1.2v1.21h1.2v-1.21h0Zm2.4,0h-1.2v1.21h1.2v-1.21h0Zm2.4,0h-1.21v1.21h1.21v-1.21h0Zm2.4,0h-1.2v1.21h1.2v-1.21h0Zm2.4,0h-1.2v1.21h1.2v-1.21h0Zm2.4,0h-1.21v1.21h1.21v-1.21h0Zm2.4,0h-1.2v1.21h1.2v-1.21h0Zm2.4,0h-1.2v1.21h1.2v-1.21h0Zm-26.41-2.4h-1.2v1.2h1.2v-1.2h0Zm2.4,0h-1.21v1.2h1.21v-1.2h0Zm2.4,0h-1.21v1.2h1.21v-1.2h0Zm2.4,0h-1.2v1.2h1.2v-1.2h0Zm2.4,0h-1.2v1.2h1.2v-1.2h0Zm2.4,0h-1.2v1.2h1.2v-1.2h0Zm2.4,0h-1.21v1.2h1.21v-1.2h0Zm2.4,0h-1.2v1.2h1.2v-1.2h0Zm2.4,0h-1.2v1.2h1.2v-1.2h0Zm2.4,0h-1.21v1.2h1.21v-1.2h0Zm2.4,0h-1.2v1.2h1.2v-1.2h0Zm2.4,0h-1.2v1.2h1.2v-1.2h0Zm-26.41-2.4h-1.2v1.2h1.2v-1.2h0Zm2.4,0h-1.21v1.2h1.21v-1.2h0Zm2.4,0h-1.21v1.2h1.21v-1.2h0Zm2.4,0h-1.2v1.2h1.2v-1.2h0Zm2.4,0h-1.2v1.2h1.2v-1.2h0Zm2.4,0h-1.2v1.2h1.2v-1.2h0Zm2.4,0h-1.21v1.2h1.21v-1.2h0Zm2.4,0h-1.2v1.2h1.2v-1.2h0Zm2.4,0h-1.2v1.2h1.2v-1.2h0Zm2.4,0h-1.21v1.2h1.21v-1.2h0Zm2.4,0h-1.2v1.2h1.2v-1.2h0Zm2.4,0h-1.2v1.2h1.2v-1.2h0Zm-26.41-2.4h-1.2v1.2h1.2v-1.2h0Zm2.4,0h-1.21v1.2h1.21v-1.2h0Zm2.4,0h-1.21v1.2h1.21v-1.2h0Zm2.4,0h-1.2v1.2h1.2v-1.2h0Zm2.4,0h-1.2v1.2h1.2v-1.2h0Zm2.4,0h-1.2v1.2h1.2v-1.2h0Zm2.4,0h-1.21v1.2h1.21v-1.2h0Zm2.4,0h-1.2v1.2h1.2v-1.2h0Zm2.4,0h-1.2v1.2h1.2v-1.2h0Zm2.4,0h-1.21v1.2h1.21v-1.2h0Zm2.4,0h-1.2v1.2h1.2v-1.2h0Zm2.4,0h-1.2v1.2h1.2v-1.2h0ZM4.8,6h-1.2v1.2h1.2v-1.2h0Zm2.4,0h-1.21v1.2h1.21v-1.2h0Zm2.4,0h-1.21v1.2h1.21v-1.2h0Zm2.4,0h-1.2v1.2h1.2v-1.2h0Zm2.4,0h-1.2v1.2h1.2v-1.2h0Zm2.4,0h-1.2v1.2h1.2v-1.2h0Zm2.4,0h-1.21v1.2h1.21v-1.2h0Zm2.4,0h-1.2v1.2h1.2v-1.2h0Zm2.4,0h-1.2v1.2h1.2v-1.2h0Zm2.4,0h-1.21v1.2h1.21v-1.2h0Zm2.4,0h-1.2v1.2h1.2v-1.2h0Zm2.4,0h-1.2v1.2h1.2v-1.2h0ZM4.8,3.6h-1.2v1.2h1.2v-1.2h0Zm2.4,0h-1.21v1.2h1.21v-1.2h0Zm2.4,0h-1.21v1.2h1.21v-1.2h0Zm2.4,0h-1.2v1.2h1.2v-1.2h0Zm2.4,0h-1.2v1.2h1.2v-1.2h0Zm2.4,0h-1.2v1.2h1.2v-1.2h0Zm2.4,0h-1.21v1.2h1.21v-1.2h0Zm2.4,0h-1.2v1.2h1.2v-1.2h0Zm2.4,0h-1.2v1.2h1.2v-1.2h0Zm2.4,0h-1.21v1.2h1.21v-1.2h0Zm2.4,0h-1.2v1.2h1.2v-1.2h0Zm2.4,0h-1.2v1.2h1.2v-1.2h0ZM2.4,2.4h0v1.2h-1.2v38.42h1.2v1.2-1.2h-1.2v-1.21h1.2v-1.2h-1.2v-1.2h1.2v-1.2h-1.2v-1.2h1.2v-1.21h-1.2v-1.2h1.2v-1.2h-1.2v-1.21h1.2v-1.2h-1.2v-1.21h1.2v-1.2h-1.2v-1.2h1.2v-1.2h-1.2v-1.2h1.2v-1.2h-1.2v-1.21h1.2v-1.2h-1.2v-1.2h1.2v-1.2h-1.2v-1.2h1.2v-1.21h-1.2v-1.2h1.2v-1.2h-1.2v-1.21h1.2v-1.2h-1.2v-1.2h1.2v-1.2h-1.2v-1.2h1.2v-1.2h-1.2v-1.2h1.2v-2.4h0Zm2.4-1.2h-1.2v1.2h1.2v-1.2h0Zm2.4,0h-1.21v1.2h1.21v-1.2h0Zm2.4,0h-1.21v1.2h1.21v-1.2h0Zm2.4,0h-1.2v1.2h1.2v-1.2h0Zm2.4,0h-1.2v1.2h1.2v-1.2h0Zm2.4,0h-1.2v1.2h1.2v-1.2h0Zm2.4,0h-1.21v1.2h1.21v-1.2h0Zm2.4,0h-1.2v1.2h1.2v-1.2h0Zm2.4,0h-1.2v1.2h1.2v-1.2h0Zm2.4,0h-1.21v1.2h1.21v-1.2h0Zm2.4,0h-1.2v1.2h1.2v-1.2h0Z"/>
      <path class="cls-2" d="m3.6,42.02h-1.2v1.2h1.2v-1.2h0Zm2.4,0h-1.2v1.2h1.2v-1.2h0Zm2.4,0h-1.2v1.2h1.2v-1.2h0Zm2.4,0h-1.2v1.2h1.2v-1.2h0Zm2.4,0h-1.2v1.2h1.2v-1.2h0Zm2.4,0h-1.2v1.2h1.2v-1.2h0Zm2.4,0h-1.2v1.2h1.2v-1.2h0Zm2.4,0h-1.2v1.2h1.2v-1.2h0Zm2.4,0h-1.2v1.2h1.2v-1.2h0Zm2.4,0h-1.2v1.2h1.2v-1.2h0Zm2.4,0h-1.2v1.2h1.2v-1.2h0Zm2.4,0h-1.2v1.2h1.2v-1.2h0Zm-26.41-2.4h-1.2v1.2h1.2v-1.2h0Zm2.4,0h-1.2v1.2h1.2v-1.2h0Zm2.4,0h-1.2v1.2h1.2v-1.2h0Zm2.4,0h-1.2v1.2h1.2v-1.2h0Zm2.4,0h-1.2v1.2h1.2v-1.2h0Zm2.4,0h-1.2v1.2h1.2v-1.2h0Zm2.4,0h-1.2v1.2h1.2v-1.2h0Zm2.4,0h-1.2v1.2h1.2v-1.2h0Zm2.4,0h-1.2v1.2h1.2v-1.2h0Zm2.4,0h-1.2v1.2h1.2v-1.2h0Zm2.4,0h-1.2v1.2h1.2v-1.2h0Zm2.4,0h-1.2v1.2h1.2v-1.2h0Zm-26.41-2.4h-1.2v1.2h1.2v-1.2h0Zm2.4,0h-1.2v1.2h1.2v-1.2h0Zm2.4,0h-1.2v1.2h1.2v-1.2h0Zm2.4,0h-1.2v1.2h1.2v-1.2h0Zm2.4,0h-1.2v1.2h1.2v-1.2h0Zm2.4,0h-1.2v1.2h1.2v-1.2h0Zm2.4,0h-1.2v1.2h1.2v-1.2h0Zm2.4,0h-1.2v1.2h1.2v-1.2h0Zm2.4,0h-1.2v1.2h1.2v-1.2h0Zm2.4,0h-1.2v1.2h1.2v-1.2h0Zm2.4,0h-1.2v1.2h1.2v-1.2h0Zm2.4,0h-1.2v1.2h1.2v-1.2h0Zm-26.41-2.4h-1.2v1.21h1.2v-1.21h0Zm2.4,0h-1.2v1.21h1.2v-1.21h0Zm2.4,0h-1.2v1.21h1.2v-1.21h0Zm2.4,0h-1.2v1.21h1.2v-1.21h0Zm2.4,0h-1.2v1.21h1.2v-1.21h0Zm2.4,0h-1.2v1.21h1.2v-1.21h0Zm2.4,0h-1.2v1.21h1.2v-1.21h0Zm2.4,0h-1.2v1.21h1.2v-1.21h0Zm2.4,0h-1.2v1.21h1.2v-1.21h0Zm2.4,0h-1.2v1.21h1.2v-1.21h0Zm2.4,0h-1.2v1.21h1.2v-1.21h0Zm2.4,0h-1.2v1.21h1.2v-1.21h0Zm-26.41-2.4h-1.2v1.2h1.2v-1.2h0Zm2.4,0h-1.2v1.2h1.2v-1.2h0Zm2.4,0h-1.2v1.2h1.2v-1.2h0Zm2.4,0h-1.2v1.2h1.2v-1.2h0Zm2.4,0h-1.2v1.2h1.2v-1.2h0Zm2.4,0h-1.2v1.2h1.2v-1.2h0Zm2.4,0h-1.2v1.2h1.2v-1.2h0Zm2.4,0h-1.2v1.2h1.2v-1.2h0Zm2.4,0h-1.2v1.2h1.2v-1.2h0Zm2.4,0h-1.2v1.2h1.2v-1.2h0Zm2.4,0h-1.2v1.2h1.2v-1.2h0Zm2.4,0h-1.2v1.2h1.2v-1.2h0Zm-26.41-2.4h-1.2v1.2h1.2v-1.2h0Zm2.4,0h-1.2v1.2h1.2v-1.2h0Zm2.4,0h-1.2v1.2h1.2v-1.2h0Zm2.4,0h-1.2v1.2h1.2v-1.2h0Zm2.4,0h-1.2v1.2h1.2v-1.2h0Zm2.4,0h-1.2v1.2h1.2v-1.2h0Zm2.4,0h-1.2v1.2h1.2v-1.2h0Zm2.4,0h-1.2v1.2h1.2v-1.2h0Zm2.4,0h-1.2v1.2h1.2v-1.2h0Zm2.4,0h-1.2v1.2h1.2v-1.2h0Zm2.4,0h-1.2v1.2h1.2v-1.2h0Zm2.4,0h-1.2v1.2h1.2v-1.2h0Zm-26.41-2.4h-1.2v1.2h1.2v-1.2h0Zm2.4,0h-1.2v1.2h1.2v-1.2h0Zm2.4,0h-1.2v1.2h1.2v-1.2h0Zm2.4,0h-1.2v1.2h1.2v-1.2h0Zm2.4,0h-1.2v1.2h1.2v-1.2h0Zm2.4,0h-1.2v1.2h1.2v-1.2h0Zm2.4,0h-1.2v1.2h1.2v-1.2h0Zm2.4,0h-1.2v1.2h1.2v-1.2h0Zm2.4,0h-1.2v1.2h1.2v-1.2h0Zm2.4,0h-1.2v1.2h1.2v-1.2h0Zm2.4,0h-1.2v1.2h1.2v-1.2h0Zm2.4,0h-1.2v1.2h1.2v-1.2h0Zm-26.41-2.4h-1.2v1.2h1.2v-1.2h0Zm2.4,0h-1.2v1.2h1.2v-1.2h0Zm2.4,0h-1.2v1.2h1.2v-1.2h0Zm2.4,0h-1.2v1.2h1.2v-1.2h0Zm2.4,0h-1.2v1.2h1.2v-1.2h0Zm2.4,0h-1.2v1.2h1.2v-1.2h0Zm2.4,0h-1.2v1.2h1.2v-1.2h0Zm2.4,0h-1.2v1.2h1.2v-1.2h0Zm2.4,0h-1.2v1.2h1.2v-1.2h0Zm2.4,0h-1.2v1.2h1.2v-1.2h0Zm2.4,0h-1.2v1.2h1.2v-1.2h0Zm2.4,0h-1.2v1.2h1.2v-1.2h0Zm-26.41-2.4h-1.2v1.2h1.2v-1.2h0Zm2.4,0h-1.2v1.2h1.2v-1.2h0Zm2.4,0h-1.2v1.2h1.2v-1.2h0Zm2.4,0h-1.2v1.2h1.2v-1.2h0Zm2.4,0h-1.2v1.2h1.2v-1.2h0Zm2.4,0h-1.2v1.2h1.2v-1.2h0Zm2.4,0h-1.2v1.2h1.2v-1.2h0Zm2.4,0h-1.2v1.2h1.2v-1.2h0Zm2.4,0h-1.2v1.2h1.2v-1.2h0Zm2.4,0h-1.2v1.2h1.2v-1.2h0Zm2.4,0h-1.2v1.2h1.2v-1.2h0Zm2.4,0h-1.2v1.2h1.2v-1.2h0Zm-26.41-2.4h-1.2v1.2h1.2v-1.2h0Zm2.4,0h-1.2v1.2h1.2v-1.2h0Zm2.4,0h-1.2v1.2h1.2v-1.2h0Zm2.4,0h-1.2v1.2h1.2v-1.2h0Zm2.4,0h-1.2v1.2h1.2v-1.2h0Zm2.4,0h-1.2v1.2h1.2v-1.2h0Zm2.4,0h-1.2v1.2h1.2v-1.2h0Zm2.4,0h-1.2v1.2h1.2v-1.2h0Zm2.4,0h-1.2v1.2h1.2v-1.2h0Zm2.4,0h-1.2v1.2h1.2v-1.2h0Zm2.4,0h-1.2v1.2h1.2v-1.2h0Zm2.4,0h-1.2v1.2h1.2v-1.2h0Zm-26.41-2.4h-1.2v1.2h1.2v-1.2h0Zm2.4,0h-1.2v1.2h1.2v-1.2h0Zm2.4,0h-1.2v1.2h1.2v-1.2h0Zm2.4,0h-1.2v1.2h1.2v-1.2h0Zm2.4,0h-1.2v1.2h1.2v-1.2h0Zm2.4,0h-1.2v1.2h1.2v-1.2h0Zm2.4,0h-1.2v1.2h1.2v-1.2h0Zm2.4,0h-1.2v1.2h1.2v-1.2h0Zm2.4,0h-1.2v1.2h1.2v-1.2h0Zm2.4,0h-1.2v1.2h1.2v-1.2h0Zm2.4,0h-1.2v1.2h1.2v-1.2h0Zm2.4,0h-1.2v1.2h1.2v-1.2h0ZM3.6,15.61h-1.2v1.21h1.2v-1.21h0Zm2.4,0h-1.2v1.21h1.2v-1.21h0Zm2.4,0h-1.2v1.21h1.2v-1.21h0Zm2.4,0h-1.2v1.21h1.2v-1.21h0Zm2.4,0h-1.2v1.21h1.2v-1.21h0Zm2.4,0h-1.2v1.21h1.2v-1.21h0Zm2.4,0h-1.2v1.21h1.2v-1.21h0Zm2.4,0h-1.2v1.21h1.2v-1.21h0Zm2.4,0h-1.2v1.21h1.2v-1.21h0Zm2.4,0h-1.2v1.21h1.2v-1.21h0Zm2.4,0h-1.2v1.21h1.2v-1.21h0Zm2.4,0h-1.2v1.21h1.2v-1.21h0ZM3.6,13.21h-1.2v1.2h1.2v-1.2h0Zm2.4,0h-1.2v1.2h1.2v-1.2h0Zm2.4,0h-1.2v1.2h1.2v-1.2h0Zm2.4,0h-1.2v1.2h1.2v-1.2h0Zm2.4,0h-1.2v1.2h1.2v-1.2h0Zm2.4,0h-1.2v1.2h1.2v-1.2h0Zm2.4,0h-1.2v1.2h1.2v-1.2h0Zm2.4,0h-1.2v1.2h1.2v-1.2h0Zm2.4,0h-1.2v1.2h1.2v-1.2h0Zm2.4,0h-1.2v1.2h1.2v-1.2h0Zm2.4,0h-1.2v1.2h1.2v-1.2h0Zm2.4,0h-1.2v1.2h1.2v-1.2h0ZM3.6,10.81h-1.2v1.2h1.2v-1.2h0Zm2.4,0h-1.2v1.2h1.2v-1.2h0Zm2.4,0h-1.2v1.2h1.2v-1.2h0Zm2.4,0h-1.2v1.2h1.2v-1.2h0Zm2.4,0h-1.2v1.2h1.2v-1.2h0Zm2.4,0h-1.2v1.2h1.2v-1.2h0Zm2.4,0h-1.2v1.2h1.2v-1.2h0Zm2.4,0h-1.2v1.2h1.2v-1.2h0Zm2.4,0h-1.2v1.2h1.2v-1.2h0Zm2.4,0h-1.2v1.2h1.2v-1.2h0Zm2.4,0h-1.2v1.2h1.2v-1.2h0Zm2.4,0h-1.2v1.2h1.2v-1.2h0ZM3.6,8.41h-1.2v1.2h1.2v-1.2h0Zm2.4,0h-1.2v1.2h1.2v-1.2h0Zm2.4,0h-1.2v1.2h1.2v-1.2h0Zm2.4,0h-1.2v1.2h1.2v-1.2h0Zm2.4,0h-1.2v1.2h1.2v-1.2h0Zm2.4,0h-1.2v1.2h1.2v-1.2h0Zm2.4,0h-1.2v1.2h1.2v-1.2h0Zm2.4,0h-1.2v1.2h1.2v-1.2h0Zm2.4,0h-1.2v1.2h1.2v-1.2h0Zm2.4,0h-1.2v1.2h1.2v-1.2h0Zm2.4,0h-1.2v1.2h1.2v-1.2h0Zm2.4,0h-1.2v1.2h1.2v-1.2h0ZM3.6,6h-1.2v1.2h1.2v-1.2h0Zm2.4,0h-1.2v1.2h1.2v-1.2h0Zm2.4,0h-1.2v1.2h1.2v-1.2h0Zm2.4,0h-1.2v1.2h1.2v-1.2h0Zm2.4,0h-1.2v1.2h1.2v-1.2h0Zm2.4,0h-1.2v1.2h1.2v-1.2h0Zm2.4,0h-1.2v1.2h1.2v-1.2h0Zm2.4,0h-1.2v1.2h1.2v-1.2h0Zm2.4,0h-1.2v1.2h1.2v-1.2h0Zm2.4,0h-1.2v1.2h1.2v-1.2h0Zm2.4,0h-1.2v1.2h1.2v-1.2h0Zm2.4,0h-1.2v1.2h1.2v-1.2h0ZM6,3.6h-1.2v1.2h1.2v-1.2h0Zm2.4,0h-1.2v1.2h1.2v-1.2h0Zm2.4,0h-1.2v1.2h1.2v-1.2h0Zm2.4,0h-1.2v1.2h1.2v-1.2h0Zm2.4,0h-1.2v1.2h1.2v-1.2h0Zm2.4,0h-1.2v1.2h1.2v-1.2h0Zm2.4,0h-1.2v1.2h1.2v-1.2h0Zm2.4,0h-1.2v1.2h1.2v-1.2h0Zm2.4,0h-1.2v1.2h1.2v-1.2h0Zm2.4,0h-1.2v1.2h1.2v-1.2h0Zm2.4,0h-1.2v1.2h1.2v-1.2h0ZM2.4,2.4h0v2.4h1.2v-1.2h-1.2v-1.2h0Zm3.6-1.2h-1.2v1.2h1.2v-1.2h0Zm2.4,0h-1.2v1.2h1.2v-1.2h0Zm2.4,0h-1.2v1.2h1.2v-1.2h0Zm2.4,0h-1.2v1.2h1.2v-1.2h0Zm2.4,0h-1.2v1.2h1.2v-1.2h0Zm2.4,0h-1.2v1.2h1.2v-1.2h0Zm2.4,0h-1.2v1.2h1.2v-1.2h0Zm2.4,0h-1.2v1.2h1.2v-1.2h0Zm2.4,0h-1.2v1.2h1.2v-1.2h0Zm2.4,0h-1.2v1.2h1.2v-1.2h0Z"/>
      <path class="cls-1" d="m3.6,43.22h-1.2v1.2h1.2v-1.2h0Zm25.21,0h0v1.2-1.2h0Z"/>
      <path class="cls-5" d="m4.8,43.22h-2.4,1.2v1.2h1.2v-1.2h0Zm2.4,0h-1.21v1.2h1.21v-1.2h0Zm2.4,0h-1.21v1.2h1.21v-1.2h0Zm2.4,0h-1.2v1.2h1.2v-1.2h0Zm2.4,0h-1.2v1.2h1.2v-1.2h0Zm2.4,0h-1.2v1.2h1.2v-1.2h0Zm2.4,0h-1.21v1.2h1.21v-1.2h0Zm2.4,0h-1.2v1.2h1.2v-1.2h0Zm2.4,0h-1.2v1.2h1.2v-1.2h0Zm2.4,0h-1.21v1.2h1.21v-1.2h0Zm2.4,0h-1.2v1.2h1.2v-1.2h0Zm-26.42-2.4h-1.2v1.21h1.2v-1.21h0Zm2.4,0h-1.2v1.21h1.2v-1.21h0Zm2.4,0h-1.21v1.21h1.21v-1.21h0Zm2.4,0h-1.21v1.21h1.21v-1.21h0Zm2.4,0h-1.2v1.21h1.2v-1.21h0Zm2.4,0h-1.2v1.21h1.2v-1.21h0Zm2.4,0h-1.2v1.21h1.2v-1.21h0Zm2.4,0h-1.21v1.21h1.21v-1.21h0Zm2.4,0h-1.2v1.21h1.2v-1.21h0Zm2.4,0h-1.2v1.21h1.2v-1.21h0Zm2.4,0h-1.21v1.21h1.21v-1.21h0Zm2.4,0h-1.2v1.21h1.2v-1.21h0Zm2.4,0h-1.2v1.21h1.2v-1.21h0Zm-28.81-2.4h-1.2v1.2h1.2v-1.2h0Zm2.4,0h-1.2v1.2h1.2v-1.2h0Zm2.4,0h-1.21v1.2h1.21v-1.2h0Zm2.4,0h-1.21v1.2h1.21v-1.2h0Zm2.4,0h-1.2v1.2h1.2v-1.2h0Zm2.4,0h-1.2v1.2h1.2v-1.2h0Zm2.4,0h-1.2v1.2h1.2v-1.2h0Zm2.4,0h-1.21v1.2h1.21v-1.2h0Zm2.4,0h-1.2v1.2h1.2v-1.2h0Zm2.4,0h-1.2v1.2h1.2v-1.2h0Zm2.4,0h-1.21v1.2h1.21v-1.2h0Zm2.4,0h-1.2v1.2h1.2v-1.2h0Zm2.4,0h-1.2v1.2h1.2v-1.2h0Zm-28.81-2.4h-1.2v1.2h1.2v-1.2h0Zm2.4,0h-1.2v1.2h1.2v-1.2h0Zm2.4,0h-1.21v1.2h1.21v-1.2h0Zm2.4,0h-1.21v1.2h1.21v-1.2h0Zm2.4,0h-1.2v1.2h1.2v-1.2h0Zm2.4,0h-1.2v1.2h1.2v-1.2h0Zm2.4,0h-1.2v1.2h1.2v-1.2h0Zm2.4,0h-1.21v1.2h1.21v-1.2h0Zm2.4,0h-1.2v1.2h1.2v-1.2h0Zm2.4,0h-1.2v1.2h1.2v-1.2h0Zm2.4,0h-1.21v1.2h1.21v-1.2h0Zm2.4,0h-1.2v1.2h1.2v-1.2h0Zm2.4,0h-1.2v1.2h1.2v-1.2h0Zm-28.81-2.4h-1.2v1.2h1.2v-1.2h0Zm2.4,0h-1.2v1.2h1.2v-1.2h0Zm2.4,0h-1.21v1.2h1.21v-1.2h0Zm2.4,0h-1.21v1.2h1.21v-1.2h0Zm2.4,0h-1.2v1.2h1.2v-1.2h0Zm2.4,0h-1.2v1.2h1.2v-1.2h0Zm2.4,0h-1.2v1.2h1.2v-1.2h0Zm2.4,0h-1.21v1.2h1.21v-1.2h0Zm2.4,0h-1.2v1.2h1.2v-1.2h0Zm2.4,0h-1.2v1.2h1.2v-1.2h0Zm2.4,0h-1.21v1.2h1.21v-1.2h0Zm2.4,0h-1.2v1.2h1.2v-1.2h0Zm2.4,0h-1.2v1.2h1.2v-1.2h0Zm-28.81-2.4h-1.2v1.21h1.2v-1.21h0Zm2.4,0h-1.2v1.21h1.2v-1.21h0Zm2.4,0h-1.21v1.21h1.21v-1.21h0Zm2.4,0h-1.21v1.21h1.21v-1.21h0Zm2.4,0h-1.2v1.21h1.2v-1.21h0Zm2.4,0h-1.2v1.21h1.2v-1.21h0Zm2.4,0h-1.2v1.21h1.2v-1.21h0Zm2.4,0h-1.21v1.21h1.21v-1.21h0Zm2.4,0h-1.2v1.21h1.2v-1.21h0Zm2.4,0h-1.2v1.21h1.2v-1.21h0Zm2.4,0h-1.21v1.21h1.21v-1.21h0Zm2.4,0h-1.2v1.21h1.2v-1.21h0Zm2.4,0h-1.2v1.21h1.2v-1.21h0Zm-28.81-2.4h-1.2v1.21h1.2v-1.21h0Zm2.4,0h-1.2v1.21h1.2v-1.21h0Zm2.4,0h-1.21v1.21h1.21v-1.21h0Zm2.4,0h-1.21v1.21h1.21v-1.21h0Zm2.4,0h-1.2v1.21h1.2v-1.21h0Zm2.4,0h-1.2v1.21h1.2v-1.21h0Zm2.4,0h-1.2v1.21h1.2v-1.21h0Zm2.4,0h-1.21v1.21h1.21v-1.21h0Zm2.4,0h-1.2v1.21h1.2v-1.21h0Zm2.4,0h-1.2v1.21h1.2v-1.21h0Zm2.4,0h-1.21v1.21h1.21v-1.21h0Zm2.4,0h-1.2v1.21h1.2v-1.21h0Zm2.4,0h-1.2v1.21h1.2v-1.21h0Zm-28.81-2.4h-1.2v1.2h1.2v-1.2h0Zm2.4,0h-1.2v1.2h1.2v-1.2h0Zm2.4,0h-1.21v1.2h1.21v-1.2h0Zm2.4,0h-1.21v1.2h1.21v-1.2h0Zm2.4,0h-1.2v1.2h1.2v-1.2h0Zm2.4,0h-1.2v1.2h1.2v-1.2h0Zm2.4,0h-1.2v1.2h1.2v-1.2h0Zm2.4,0h-1.21v1.2h1.21v-1.2h0Zm2.4,0h-1.2v1.2h1.2v-1.2h0Zm2.4,0h-1.2v1.2h1.2v-1.2h0Zm2.4,0h-1.21v1.2h1.21v-1.2h0Zm2.4,0h-1.2v1.2h1.2v-1.2h0Zm2.4,0h-1.2v1.2h1.2v-1.2h0Zm-28.81-2.4h-1.2v1.2h1.2v-1.2h0Zm2.4,0h-1.2v1.2h1.2v-1.2h0Zm2.4,0h-1.21v1.2h1.21v-1.2h0Zm2.4,0h-1.21v1.2h1.21v-1.2h0Zm2.4,0h-1.2v1.2h1.2v-1.2h0Zm2.4,0h-1.2v1.2h1.2v-1.2h0Zm2.4,0h-1.2v1.2h1.2v-1.2h0Zm2.4,0h-1.21v1.2h1.21v-1.2h0Zm2.4,0h-1.2v1.2h1.2v-1.2h0Zm2.4,0h-1.2v1.2h1.2v-1.2h0Zm2.4,0h-1.21v1.2h1.21v-1.2h0Zm2.4,0h-1.2v1.2h1.2v-1.2h0Zm2.4,0h-1.2v1.2h1.2v-1.2h0Zm-28.81-2.4h-1.2v1.21h1.2v-1.21h0Zm2.4,0h-1.2v1.21h1.2v-1.21h0Zm2.4,0h-1.21v1.21h1.21v-1.21h0Zm2.4,0h-1.21v1.21h1.21v-1.21h0Zm2.4,0h-1.2v1.21h1.2v-1.21h0Zm2.4,0h-1.2v1.21h1.2v-1.21h0Zm2.4,0h-1.2v1.21h1.2v-1.21h0Zm2.4,0h-1.21v1.21h1.21v-1.21h0Zm2.4,0h-1.2v1.21h1.2v-1.21h0Zm2.4,0h-1.2v1.21h1.2v-1.21h0Zm2.4,0h-1.21v1.21h1.21v-1.21h0Zm2.4,0h-1.2v1.21h1.2v-1.21h0Zm2.4,0h-1.2v1.21h1.2v-1.21h0Zm-28.81-2.4h-1.2v1.2h1.2v-1.2h0Zm2.4,0h-1.2v1.2h1.2v-1.2h0Zm2.4,0h-1.21v1.2h1.21v-1.2h0Zm2.4,0h-1.21v1.2h1.21v-1.2h0Zm2.4,0h-1.2v1.2h1.2v-1.2h0Zm2.4,0h-1.2v1.2h1.2v-1.2h0Zm2.4,0h-1.2v1.2h1.2v-1.2h0Zm2.4,0h-1.21v1.2h1.21v-1.2h0Zm2.4,0h-1.2v1.2h1.2v-1.2h0Zm2.4,0h-1.2v1.2h1.2v-1.2h0Zm2.4,0h-1.21v1.2h1.21v-1.2h0Zm2.4,0h-1.2v1.2h1.2v-1.2h0Zm2.4,0h-1.2v1.2h1.2v-1.2h0Zm-28.81-2.4h-1.2v1.2h1.2v-1.2h0Zm2.4,0h-1.2v1.2h1.2v-1.2h0Zm2.4,0h-1.21v1.2h1.21v-1.2h0Zm2.4,0h-1.21v1.2h1.21v-1.2h0Zm2.4,0h-1.2v1.2h1.2v-1.2h0Zm2.4,0h-1.2v1.2h1.2v-1.2h0Zm2.4,0h-1.2v1.2h1.2v-1.2h0Zm2.4,0h-1.21v1.2h1.21v-1.2h0Zm2.4,0h-1.2v1.2h1.2v-1.2h0Zm2.4,0h-1.2v1.2h1.2v-1.2h0Zm2.4,0h-1.21v1.2h1.21v-1.2h0Zm2.4,0h-1.2v1.2h1.2v-1.2h0Zm2.4,0h-1.2v1.2h1.2v-1.2h0ZM2.4,14.41h-1.2v1.2h1.2v-1.2h0Zm2.4,0h-1.2v1.2h1.2v-1.2h0Zm2.4,0h-1.21v1.2h1.21v-1.2h0Zm2.4,0h-1.21v1.2h1.21v-1.2h0Zm2.4,0h-1.2v1.2h1.2v-1.2h0Zm2.4,0h-1.2v1.2h1.2v-1.2h0Zm2.4,0h-1.2v1.2h1.2v-1.2h0Zm2.4,0h-1.21v1.2h1.21v-1.2h0Zm2.4,0h-1.2v1.2h1.2v-1.2h0Zm2.4,0h-1.2v1.2h1.2v-1.2h0Zm2.4,0h-1.21v1.2h1.21v-1.2h0Zm2.4,0h-1.2v1.2h1.2v-1.2h0Zm2.4,0h-1.2v1.2h1.2v-1.2h0ZM2.4,12.01h-1.2v1.21h1.2v-1.21h0Zm2.4,0h-1.2v1.21h1.2v-1.21h0Zm2.4,0h-1.21v1.21h1.21v-1.21h0Zm2.4,0h-1.21v1.21h1.21v-1.21h0Zm2.4,0h-1.2v1.21h1.2v-1.21h0Zm2.4,0h-1.2v1.21h1.2v-1.21h0Zm2.4,0h-1.2v1.21h1.2v-1.21h0Zm2.4,0h-1.21v1.21h1.21v-1.21h0Zm2.4,0h-1.2v1.21h1.2v-1.21h0Zm2.4,0h-1.2v1.21h1.2v-1.21h0Zm2.4,0h-1.21v1.21h1.21v-1.21h0Zm2.4,0h-1.2v1.21h1.2v-1.21h0Zm2.4,0h-1.2v1.21h1.2v-1.21h0ZM2.4,9.6h-1.2v1.2h1.2v-1.2h0Zm2.4,0h-1.2v1.2h1.2v-1.2h0Zm2.4,0h-1.21v1.2h1.21v-1.2h0Zm2.4,0h-1.21v1.2h1.21v-1.2h0Zm2.4,0h-1.2v1.2h1.2v-1.2h0Zm2.4,0h-1.2v1.2h1.2v-1.2h0Zm2.4,0h-1.2v1.2h1.2v-1.2h0Zm2.4,0h-1.21v1.2h1.21v-1.2h0Zm2.4,0h-1.2v1.2h1.2v-1.2h0Zm2.4,0h-1.2v1.2h1.2v-1.2h0Zm2.4,0h-1.21v1.2h1.21v-1.2h0Zm2.4,0h-1.2v1.2h1.2v-1.2h0Zm2.4,0h-1.2v1.2h1.2v-1.2h0ZM2.4,7.21h-1.2v1.2h1.2v-1.2h0Zm2.4,0h-1.2v1.2h1.2v-1.2h0Zm2.4,0h-1.21v1.2h1.21v-1.2h0Zm2.4,0h-1.21v1.2h1.21v-1.2h0Zm2.4,0h-1.2v1.2h1.2v-1.2h0Zm2.4,0h-1.2v1.2h1.2v-1.2h0Zm2.4,0h-1.2v1.2h1.2v-1.2h0Zm2.4,0h-1.21v1.2h1.21v-1.2h0Zm2.4,0h-1.2v1.2h1.2v-1.2h0Zm2.4,0h-1.2v1.2h1.2v-1.2h0Zm2.4,0h-1.21v1.2h1.21v-1.2h0Zm2.4,0h-1.2v1.2h1.2v-1.2h0Zm2.4,0h-1.2v1.2h1.2v-1.2h0ZM2.4,4.81h-1.2v1.2h1.2v-1.2h0Zm2.4,0h-1.2v1.2h1.2v-1.2h0Zm2.4,0h-1.21v1.2h1.21v-1.2h0Zm2.4,0h-1.21v1.2h1.21v-1.2h0Zm2.4,0h-1.2v1.2h1.2v-1.2h0Zm2.4,0h-1.2v1.2h1.2v-1.2h0Zm2.4,0h-1.2v1.2h1.2v-1.2h0Zm2.4,0h-1.21v1.2h1.21v-1.2h0Zm2.4,0h-1.2v1.2h1.2v-1.2h0Zm2.4,0h-1.2v1.2h1.2v-1.2h0Zm2.4,0h-1.21v1.2h1.21v-1.2h0Zm2.4,0h-1.2v1.2h1.2v-1.2h0Zm2.4,0h-1.2v1.2h1.2v-1.2h0ZM4.8,2.4h-1.2v1.2h1.2v-1.2h0Zm2.4,0h-1.21v1.2h1.21v-1.2h0Zm2.4,0h-1.21v1.2h1.21v-1.2h0Zm2.4,0h-1.2v1.2h1.2v-1.2h0Zm2.4,0h-1.2v1.2h1.2v-1.2h0Zm2.4,0h-1.2v1.2h1.2v-1.2h0Zm2.4,0h-1.21v1.2h1.21v-1.2h0Zm2.4,0h-1.2v1.2h1.2v-1.2h0Zm2.4,0h-1.2v1.2h1.2v-1.2h0Zm2.4,0h-1.21v1.2h1.21v-1.2h0Zm2.4,0h-1.2v1.2h1.2v-1.2h0Z"/>
      <path class="cls-6" d="m3.6,43.22h-1.2,1.2Zm2.4,0h-1.2v1.2h1.2v-1.2h0Zm2.4,0h-1.2v1.2h1.2v-1.2h0Zm2.4,0h-1.2v1.2h1.2v-1.2h0Zm2.4,0h-1.2v1.2h1.2v-1.2h0Zm2.4,0h-1.2v1.2h1.2v-1.2h0Zm2.4,0h-1.2v1.2h1.2v-1.2h0Zm2.4,0h-1.2v1.2h1.2v-1.2h0Zm2.4,0h-1.2v1.2h1.2v-1.2h0Zm2.4,0h-1.2v1.2h1.2v-1.2h0Zm2.4,0h-1.2v1.2h1.2v-1.2h0Zm-24.01-2.4h-1.2v1.21h1.2v-1.21h0Zm2.4,0h-1.2v1.21h1.2v-1.21h0Zm2.4,0h-1.2v1.21h1.2v-1.21h0Zm2.4,0h-1.2v1.21h1.2v-1.21h0Zm2.4,0h-1.2v1.21h1.2v-1.21h0Zm2.4,0h-1.2v1.21h1.2v-1.21h0Zm2.4,0h-1.2v1.21h1.2v-1.21h0Zm2.4,0h-1.2v1.21h1.2v-1.21h0Zm2.4,0h-1.2v1.21h1.2v-1.21h0Zm2.4,0h-1.2v1.21h1.2v-1.21h0Zm2.4,0h-1.2v1.21h1.2v-1.21h0Zm2.4,0h-1.2v1.21h1.2v-1.21h0Zm-26.41-2.4h-1.2v1.2h1.2v-1.2h0Zm2.4,0h-1.2v1.2h1.2v-1.2h0Zm2.4,0h-1.2v1.2h1.2v-1.2h0Zm2.4,0h-1.2v1.2h1.2v-1.2h0Zm2.4,0h-1.2v1.2h1.2v-1.2h0Zm2.4,0h-1.2v1.2h1.2v-1.2h0Zm2.4,0h-1.2v1.2h1.2v-1.2h0Zm2.4,0h-1.2v1.2h1.2v-1.2h0Zm2.4,0h-1.2v1.2h1.2v-1.2h0Zm2.4,0h-1.2v1.2h1.2v-1.2h0Zm2.4,0h-1.2v1.2h1.2v-1.2h0Zm2.4,0h-1.2v1.2h1.2v-1.2h0Zm-26.41-2.4h-1.2v1.2h1.2v-1.2h0Zm2.4,0h-1.2v1.2h1.2v-1.2h0Zm2.4,0h-1.2v1.2h1.2v-1.2h0Zm2.4,0h-1.2v1.2h1.2v-1.2h0Zm2.4,0h-1.2v1.2h1.2v-1.2h0Zm2.4,0h-1.2v1.2h1.2v-1.2h0Zm2.4,0h-1.2v1.2h1.2v-1.2h0Zm2.4,0h-1.2v1.2h1.2v-1.2h0Zm2.4,0h-1.2v1.2h1.2v-1.2h0Zm2.4,0h-1.2v1.2h1.2v-1.2h0Zm2.4,0h-1.2v1.2h1.2v-1.2h0Zm2.4,0h-1.2v1.2h1.2v-1.2h0Zm-26.41-2.4h-1.2v1.2h1.2v-1.2h0Zm2.4,0h-1.2v1.2h1.2v-1.2h0Zm2.4,0h-1.2v1.2h1.2v-1.2h0Zm2.4,0h-1.2v1.2h1.2v-1.2h0Zm2.4,0h-1.2v1.2h1.2v-1.2h0Zm2.4,0h-1.2v1.2h1.2v-1.2h0Zm2.4,0h-1.2v1.2h1.2v-1.2h0Zm2.4,0h-1.2v1.2h1.2v-1.2h0Zm2.4,0h-1.2v1.2h1.2v-1.2h0Zm2.4,0h-1.2v1.2h1.2v-1.2h0Zm2.4,0h-1.2v1.2h1.2v-1.2h0Zm2.4,0h-1.2v1.2h1.2v-1.2h0Zm-26.41-2.4h-1.2v1.21h1.2v-1.21h0Zm2.4,0h-1.2v1.21h1.2v-1.21h0Zm2.4,0h-1.2v1.21h1.2v-1.21h0Zm2.4,0h-1.2v1.21h1.2v-1.21h0Zm2.4,0h-1.2v1.21h1.2v-1.21h0Zm2.4,0h-1.2v1.21h1.2v-1.21h0Zm2.4,0h-1.2v1.21h1.2v-1.21h0Zm2.4,0h-1.2v1.21h1.2v-1.21h0Zm2.4,0h-1.2v1.21h1.2v-1.21h0Zm2.4,0h-1.2v1.21h1.2v-1.21h0Zm2.4,0h-1.2v1.21h1.2v-1.21h0Zm2.4,0h-1.2v1.21h1.2v-1.21h0Zm-26.41-2.4h-1.2v1.21h1.2v-1.21h0Zm2.4,0h-1.2v1.21h1.2v-1.21h0Zm2.4,0h-1.2v1.21h1.2v-1.21h0Zm2.4,0h-1.2v1.21h1.2v-1.21h0Zm2.4,0h-1.2v1.21h1.2v-1.21h0Zm2.4,0h-1.2v1.21h1.2v-1.21h0Zm2.4,0h-1.2v1.21h1.2v-1.21h0Zm2.4,0h-1.2v1.21h1.2v-1.21h0Zm2.4,0h-1.2v1.21h1.2v-1.21h0Zm2.4,0h-1.2v1.21h1.2v-1.21h0Zm2.4,0h-1.2v1.21h1.2v-1.21h0Zm2.4,0h-1.2v1.21h1.2v-1.21h0Zm-26.41-2.4h-1.2v1.2h1.2v-1.2h0Zm2.4,0h-1.2v1.2h1.2v-1.2h0Zm2.4,0h-1.2v1.2h1.2v-1.2h0Zm2.4,0h-1.2v1.2h1.2v-1.2h0Zm2.4,0h-1.2v1.2h1.2v-1.2h0Zm2.4,0h-1.2v1.2h1.2v-1.2h0Zm2.4,0h-1.2v1.2h1.2v-1.2h0Zm2.4,0h-1.2v1.2h1.2v-1.2h0Zm2.4,0h-1.2v1.2h1.2v-1.2h0Zm2.4,0h-1.2v1.2h1.2v-1.2h0Zm2.4,0h-1.2v1.2h1.2v-1.2h0Zm2.4,0h-1.2v1.2h1.2v-1.2h0Zm-26.41-2.4h-1.2v1.2h1.2v-1.2h0Zm2.4,0h-1.2v1.2h1.2v-1.2h0Zm2.4,0h-1.2v1.2h1.2v-1.2h0Zm2.4,0h-1.2v1.2h1.2v-1.2h0Zm2.4,0h-1.2v1.2h1.2v-1.2h0Zm2.4,0h-1.2v1.2h1.2v-1.2h0Zm2.4,0h-1.2v1.2h1.2v-1.2h0Zm2.4,0h-1.2v1.2h1.2v-1.2h0Zm2.4,0h-1.2v1.2h1.2v-1.2h0Zm2.4,0h-1.2v1.2h1.2v-1.2h0Zm2.4,0h-1.2v1.2h1.2v-1.2h0Zm2.4,0h-1.2v1.2h1.2v-1.2h0Zm-26.41-2.4h-1.2v1.21h1.2v-1.21h0Zm2.4,0h-1.2v1.21h1.2v-1.21h0Zm2.4,0h-1.2v1.21h1.2v-1.21h0Zm2.4,0h-1.2v1.21h1.2v-1.21h0Zm2.4,0h-1.2v1.21h1.2v-1.21h0Zm2.4,0h-1.2v1.21h1.2v-1.21h0Zm2.4,0h-1.2v1.21h1.2v-1.21h0Zm2.4,0h-1.2v1.21h1.2v-1.21h0Zm2.4,0h-1.2v1.21h1.2v-1.21h0Zm2.4,0h-1.2v1.21h1.2v-1.21h0Zm2.4,0h-1.2v1.21h1.2v-1.21h0Zm2.4,0h-1.2v1.21h1.2v-1.21h0Zm-26.41-2.4h-1.2v1.2h1.2v-1.2h0Zm2.4,0h-1.2v1.2h1.2v-1.2h0Zm2.4,0h-1.2v1.2h1.2v-1.2h0Zm2.4,0h-1.2v1.2h1.2v-1.2h0Zm2.4,0h-1.2v1.2h1.2v-1.2h0Zm2.4,0h-1.2v1.2h1.2v-1.2h0Zm2.4,0h-1.2v1.2h1.2v-1.2h0Zm2.4,0h-1.2v1.2h1.2v-1.2h0Zm2.4,0h-1.2v1.2h1.2v-1.2h0Zm2.4,0h-1.2v1.2h1.2v-1.2h0Zm2.4,0h-1.2v1.2h1.2v-1.2h0Zm2.4,0h-1.2v1.2h1.2v-1.2h0Zm-26.41-2.4h-1.2v1.2h1.2v-1.2h0Zm2.4,0h-1.2v1.2h1.2v-1.2h0Zm2.4,0h-1.2v1.2h1.2v-1.2h0Zm2.4,0h-1.2v1.2h1.2v-1.2h0Zm2.4,0h-1.2v1.2h1.2v-1.2h0Zm2.4,0h-1.2v1.2h1.2v-1.2h0Zm2.4,0h-1.2v1.2h1.2v-1.2h0Zm2.4,0h-1.2v1.2h1.2v-1.2h0Zm2.4,0h-1.2v1.2h1.2v-1.2h0Zm2.4,0h-1.2v1.2h1.2v-1.2h0Zm2.4,0h-1.2v1.2h1.2v-1.2h0Zm2.4,0h-1.2v1.2h1.2v-1.2h0ZM3.6,14.41h-1.2v1.2h1.2v-1.2h0Zm2.4,0h-1.2v1.2h1.2v-1.2h0Zm2.4,0h-1.2v1.2h1.2v-1.2h0Zm2.4,0h-1.2v1.2h1.2v-1.2h0Zm2.4,0h-1.2v1.2h1.2v-1.2h0Zm2.4,0h-1.2v1.2h1.2v-1.2h0Zm2.4,0h-1.2v1.2h1.2v-1.2h0Zm2.4,0h-1.2v1.2h1.2v-1.2h0Zm2.4,0h-1.2v1.2h1.2v-1.2h0Zm2.4,0h-1.2v1.2h1.2v-1.2h0Zm2.4,0h-1.2v1.2h1.2v-1.2h0Zm2.4,0h-1.2v1.2h1.2v-1.2h0ZM3.6,12.01h-1.2v1.21h1.2v-1.21h0Zm2.4,0h-1.2v1.21h1.2v-1.21h0Zm2.4,0h-1.2v1.21h1.2v-1.21h0Zm2.4,0h-1.2v1.21h1.2v-1.21h0Zm2.4,0h-1.2v1.21h1.2v-1.21h0Zm2.4,0h-1.2v1.21h1.2v-1.21h0Zm2.4,0h-1.2v1.21h1.2v-1.21h0Zm2.4,0h-1.2v1.21h1.2v-1.21h0Zm2.4,0h-1.2v1.21h1.2v-1.21h0Zm2.4,0h-1.2v1.21h1.2v-1.21h0Zm2.4,0h-1.2v1.21h1.2v-1.21h0Zm2.4,0h-1.2v1.21h1.2v-1.21h0ZM3.6,9.6h-1.2v1.2h1.2v-1.2h0Zm2.4,0h-1.2v1.2h1.2v-1.2h0Zm2.4,0h-1.2v1.2h1.2v-1.2h0Zm2.4,0h-1.2v1.2h1.2v-1.2h0Zm2.4,0h-1.2v1.2h1.2v-1.2h0Zm2.4,0h-1.2v1.2h1.2v-1.2h0Zm2.4,0h-1.2v1.2h1.2v-1.2h0Zm2.4,0h-1.2v1.2h1.2v-1.2h0Zm2.4,0h-1.2v1.2h1.2v-1.2h0Zm2.4,0h-1.2v1.2h1.2v-1.2h0Zm2.4,0h-1.2v1.2h1.2v-1.2h0Zm2.4,0h-1.2v1.2h1.2v-1.2h0ZM3.6,7.21h-1.2v1.2h1.2v-1.2h0Zm2.4,0h-1.2v1.2h1.2v-1.2h0Zm2.4,0h-1.2v1.2h1.2v-1.2h0Zm2.4,0h-1.2v1.2h1.2v-1.2h0Zm2.4,0h-1.2v1.2h1.2v-1.2h0Zm2.4,0h-1.2v1.2h1.2v-1.2h0Zm2.4,0h-1.2v1.2h1.2v-1.2h0Zm2.4,0h-1.2v1.2h1.2v-1.2h0Zm2.4,0h-1.2v1.2h1.2v-1.2h0Zm2.4,0h-1.2v1.2h1.2v-1.2h0Zm2.4,0h-1.2v1.2h1.2v-1.2h0Zm2.4,0h-1.2v1.2h1.2v-1.2h0ZM3.6,4.81h-1.2v1.2h1.2v-1.2h0Zm2.4,0h-1.2v1.2h1.2v-1.2h0Zm2.4,0h-1.2v1.2h1.2v-1.2h0Zm2.4,0h-1.2v1.2h1.2v-1.2h0Zm2.4,0h-1.2v1.2h1.2v-1.2h0Zm2.4,0h-1.2v1.2h1.2v-1.2h0Zm2.4,0h-1.2v1.2h1.2v-1.2h0Zm2.4,0h-1.2v1.2h1.2v-1.2h0Zm2.4,0h-1.2v1.2h1.2v-1.2h0Zm2.4,0h-1.2v1.2h1.2v-1.2h0Zm2.4,0h-1.2v1.2h1.2v-1.2h0Zm2.4,0h-1.2v1.2h1.2v-1.2h0ZM3.6,2.4h-1.2v1.2h1.2v-1.2h0Zm2.4,0h-1.2v1.2h1.2v-1.2h0Zm2.4,0h-1.2v1.2h1.2v-1.2h0Zm2.4,0h-1.2v1.2h1.2v-1.2h0Zm2.4,0h-1.2v1.2h1.2v-1.2h0Zm2.4,0h-1.2v1.2h1.2v-1.2h0Zm2.4,0h-1.2v1.2h1.2v-1.2h0Zm2.4,0h-1.2v1.2h1.2v-1.2h0Zm2.4,0h-1.2v1.2h1.2v-1.2h0Zm2.4,0h-1.2v1.2h1.2v-1.2h0Zm2.4,0h-1.2v1.2h1.2v-1.2h0Zm2.4,0h-1.2v1.2h1.2v-1.2h0Z"/>
    </g>
  </g>
</svg>