<?xml version="1.0" encoding="UTF-8"?>
<svg id="_图层_2" data-name="图层 2" xmlns="http://www.w3.org/2000/svg" xmlns:xlink="http://www.w3.org/1999/xlink" viewBox="0 0 32.41 45.62">
  <defs>
    <style>
      .cls-1 {
        fill: #9a2a21;
      }

      .cls-1, .cls-2, .cls-3, .cls-4, .cls-5, .cls-6, .cls-7, .cls-8, .cls-9, .cls-10, .cls-11, .cls-12 {
        stroke-width: 0px;
      }

      .cls-1, .cls-2, .cls-3, .cls-4, .cls-5, .cls-6, .cls-7, .cls-8, .cls-9, .cls-10, .cls-12 {
        fill-rule: evenodd;
      }

      .cls-2 {
        fill: #80bba9;
      }

      .cls-3 {
        fill: #f9eee3;
      }

      .cls-4 {
        fill: #cc8033;
      }

      .cls-5 {
        fill: #9e9172;
      }

      .cls-6 {
        fill: #40110d;
      }

      .cls-7 {
        fill: #539b85;
      }

      .cls-8 {
        fill: url(#radial-gradient);
      }

      .cls-9 {
        fill: #5c4034;
      }

      .cls-10 {
        fill: #deaa76;
      }

      .cls-11 {
        fill: #96281d;
      }

      .cls-12 {
        fill: #cbc4b4;
      }
    </style>
    <radialGradient id="radial-gradient" cx="-448.81" cy="582.18" fx="-448.81" fy="582.18" r=".8" gradientTransform="translate(14112.75 18308.2) scale(31.41 -31.41)" gradientUnits="userSpaceOnUse">
      <stop offset="0" stop-color="#fcf5f1"/>
      <stop offset="1" stop-color="#f4e2d7"/>
    </radialGradient>
  </defs>
  <g id="Layer_2" data-name="Layer 2">
    <g id="f12">
      <path class="cls-9" d="m31.21,3.6h1.2v38.42h-1.2v1.2h-1.2v1.2h-1.2v1.2H3.6v-1.2h-1.2v-1.2h-1.2v-1.2H0V3.6h1.2v-1.2h1.2v-1.2h1.2V0h25.21v1.2h1.2v1.2h1.2v1.2Zm-1.2-1.2h-1.2v-1.2H3.6v1.2h-1.2v1.2h-1.2v38.42h1.2v1.2h1.2v1.2h25.21v-1.2h1.2v-1.2h1.2V3.6h-1.2v-1.2Z"/>
      <polygon class="cls-8" points="30.01 2.4 30.01 3.6 31.21 3.6 31.21 42.02 30.01 42.02 30.01 43.22 28.81 43.22 28.81 44.42 3.6 44.42 3.6 43.22 2.4 43.22 2.4 42.02 1.2 42.02 1.2 3.6 2.4 3.6 2.4 2.4 3.6 2.4 3.6 1.2 28.81 1.2 28.81 2.4 30.01 2.4"/>
      <path class="cls-11" d="m3.53,5.28h1.21v6.03h-1.21v-6.03Zm1.21,0h2.43v6.03h-2.43v-1.21h1.24v-3.61h-1.24v-1.21Zm2.43,4.82h1.19v1.21h-1.19v-1.21Z"/>
      <path class="cls-6" d="m10.81,28.87v2.4h3.6v9.6h-1.2v-1.2h-1.2v-1.2h-1.2v-1.2h-1.2v-16.81h4.8v-1.2h-6v15.61h-1.2v-1.2h-1.2v-1.2h-1.2v-1.2h-1.2v-1.2h-1.2v-1.2h2.4v-1.2h2.4v-9.6h8.4v3.6h-1.2v1.2h1.2v1.2h1.2v1.2h1.2v1.2h1.2v1.2h1.2v1.2h1.2v1.2h1.2v2.4h-1.2v1.2h-1.2v-1.2h1.2v-2.4h-1.2v-1.2h-1.2v-1.2h-1.2v-1.2h-1.2v-1.2h-1.2v-1.2h-1.2v1.2h-1.2v2.4h1.2v1.2h-2.4v-3.6h1.2v-3.6h-2.4v7.2Zm7.26,7.2v-1.2h1.14v1.2h-1.14Zm-2.46,6v-14.41h1.2v8.4h1.2v1.2h-1.2v6h-1.2v-1.2Zm-8.4-9.6v-3.6h-2.4v2.4h1.2v1.2h1.2Zm3.6,3.6v1.2h1.2v1.2h1.2v-6h-2.4v3.6Z"/>
      <path class="cls-12" d="m19.21,34.88h-1.14v1.2h-1.26v-8.4h-1.2v-2.4h1.2v1.2h1.2v1.2h1.2v1.2h1.2v1.2h1.2v2.4h-1.2v1.2h-1.2v-2.4h-1.2v2.4h1.2v1.2Zm-10.8-10.8v-4.8h6v1.2h-4.8v3.6h-1.2Z"/>
      <path class="cls-5" d="m19.21,34.88v-1.2h-1.2v-2.4h1.2v2.4h1.2v1.2h-1.2Zm-9.6-10.8v12.01h-1.2v-12.01h1.2Zm6,3.6v1.2h-1.2v-1.2h-1.2v-2.4h1.2v-1.2h1.2v3.6Z"/>
      <path class="cls-10" d="m12.01,25.27h-1.2v-3.6h2.4v3.6h-1.2Zm1.2,3.6h2.4v7.2h-1.2v-4.8h-3.6v-2.4h1.2v1.2h1.2v-1.2Zm-6,3.6h-1.2v-1.2h-1.2v-2.4h2.4v3.6Z"/>
      <path class="cls-4" d="m15.61,36.08v6h-1.2v-6h1.2Zm-3.6-10.81v3.6h-1.2v-3.6h1.2Zm1.2,3.6v1.2h-1.2v-1.2h1.2Z"/>
      <path class="cls-2" d="m10.81,34.88v-2.4h2.4v2.4h-2.4Zm0,1.2h1.2v1.2h1.2v1.2h-1.2v-1.2h-1.2v-1.2Z"/>
      <polygon class="cls-7" points="12.01 37.28 12.01 36.08 10.81 36.08 10.81 34.88 13.21 34.88 13.21 37.28 12.01 37.28"/>
      <polygon class="cls-1" points="2.4 28.81 2.4 30.01 3.6 30.01 3.6 31.21 4.8 31.21 4.8 32.42 6 32.42 6 33.62 7.2 33.62 7.2 34.82 8.4 34.82 8.4 36.02 9.61 36.02 9.61 37.22 10.81 37.22 10.81 38.42 12.01 38.42 12.01 39.62 13.21 39.62 13.21 40.82 14.41 40.82 14.41 42.02 15.61 42.02 15.61 43.22 16.81 43.22 16.81 44.42 3.6 44.42 3.6 43.22 2.4 43.22 2.4 42.02 1.2 42.02 1.2 28.81 2.4 28.81"/>
      <polygon class="cls-3" points="7.9 39.27 7.55 39.27 7.55 39.84 7.2 39.84 7.2 40.4 6.86 40.4 6.86 40.97 6.51 40.97 6.51 41.54 6.16 41.54 6.16 42.11 5.81 42.11 5.81 41.54 5.46 41.54 5.46 40.97 5.11 40.97 5.11 40.4 4.76 40.4 4.76 39.84 4.41 39.84 4.41 39.27 4.06 39.27 4.06 38.7 4.41 38.7 4.41 38.13 4.76 38.13 4.76 37.56 5.11 37.56 5.11 36.99 5.46 36.99 5.46 36.43 5.81 36.43 5.81 35.86 6.16 35.86 6.16 36.43 6.51 36.43 6.51 36.99 6.86 36.99 6.86 37.56 7.2 37.56 7.2 38.13 7.55 38.13 7.55 38.7 7.9 38.7 7.9 39.27"/>
    </g>
  </g>
</svg>