<?xml version="1.0" encoding="UTF-8"?>
<svg id="_图层_2" data-name="图层 2" xmlns="http://www.w3.org/2000/svg" xmlns:xlink="http://www.w3.org/1999/xlink" viewBox="0 0 32.42 45.62">
  <defs>
    <style>
      .cls-1 {
        fill: url(#radial-gradient);
      }

      .cls-1, .cls-2, .cls-3 {
        fill-rule: evenodd;
      }

      .cls-1, .cls-2, .cls-3, .cls-4 {
        stroke-width: 0px;
      }

      .cls-2 {
        fill: #5c4034;
      }

      .cls-3, .cls-4 {
        fill: #96281d;
      }
    </style>
    <radialGradient id="radial-gradient" cx="-251.23" cy="582.18" fx="-251.23" fy="582.18" r=".8" gradientTransform="translate(7907.03 18308.2) scale(31.41 -31.41)" gradientUnits="userSpaceOnUse">
      <stop offset="0" stop-color="#fcf5f1"/>
      <stop offset="1" stop-color="#f4e2d7"/>
    </radialGradient>
  </defs>
  <g id="Layer_2" data-name="Layer 2">
    <g id="f7">
      <path class="cls-2" d="m31.21,3.6h1.2v38.42h-1.2v1.2h-1.2v1.2h-1.2v1.2H3.6v-1.2h-1.2v-1.2h-1.2v-1.2H0V3.6h1.2v-1.2h1.2v-1.2h1.2V0h25.21v1.2h1.2v1.2h1.2v1.2Zm-1.2-1.2h-1.2v-1.2H3.6v1.2h-1.2v1.2h-1.2v38.42h1.2v1.2h1.2v1.2h25.21v-1.2h1.2v-1.2h1.2V3.6h-1.2v-1.2Z"/>
      <polygon class="cls-1" points="30.01 2.4 30.01 3.6 31.21 3.6 31.21 42.02 30.01 42.02 30.01 43.22 28.81 43.22 28.81 44.42 3.6 44.42 3.6 43.22 2.4 43.22 2.4 42.02 1.2 42.02 1.2 3.6 2.4 3.6 2.4 2.4 3.6 2.4 3.6 1.2 28.81 1.2 28.81 2.4 30.01 2.4"/>
      <polygon class="cls-3" points="19.41 18.9 19.41 20.08 20.12 20.08 20.12 21.26 20.84 21.26 20.84 22.43 21.55 22.43 21.55 23.61 20.84 23.61 20.84 24.79 20.12 24.79 20.12 25.97 19.41 25.97 19.41 27.14 18.69 27.14 18.69 28.32 17.97 28.32 17.97 29.5 17.26 29.5 17.26 30.67 16.54 30.67 16.54 31.85 15.82 31.85 15.82 30.67 15.11 30.67 15.11 29.5 14.39 29.5 14.39 28.32 13.67 28.32 13.67 27.14 12.96 27.14 12.96 25.97 12.24 25.97 12.24 24.79 11.53 24.79 11.53 23.61 10.81 23.61 10.81 22.43 11.53 22.43 11.53 21.26 12.24 21.26 12.24 20.08 12.96 20.08 12.96 18.9 13.67 18.9 13.67 17.72 14.39 17.72 14.39 16.55 15.11 16.55 15.11 15.37 15.82 15.37 15.82 14.19 16.54 14.19 16.54 15.37 17.26 15.37 17.26 16.55 17.97 16.55 17.97 17.72 18.69 17.72 18.69 18.9 19.41 18.9"/>
      <polygon class="cls-4" points="4.12 5.28 7.78 5.28 7.78 11.33 6.55 11.33 6.55 6.49 4.12 6.49 4.12 5.28"/>
    </g>
  </g>
</svg>