<?xml version="1.0" encoding="UTF-8"?>
<svg id="_图层_2" data-name="图层 2" xmlns="http://www.w3.org/2000/svg" xmlns:xlink="http://www.w3.org/1999/xlink" viewBox="0 0 32.42 45.62">
  <defs>
    <style>
      .cls-1 {
        fill: #dc5445;
      }

      .cls-1, .cls-2, .cls-3, .cls-4, .cls-5, .cls-6, .cls-7, .cls-8, .cls-9, .cls-10, .cls-11, .cls-12, .cls-13, .cls-14, .cls-15, .cls-16, .cls-17, .cls-18, .cls-19 {
        stroke-width: 0px;
      }

      .cls-1, .cls-3, .cls-4, .cls-5, .cls-6, .cls-7, .cls-8, .cls-9, .cls-10, .cls-11, .cls-12, .cls-13, .cls-14, .cls-15, .cls-16, .cls-17, .cls-18, .cls-19 {
        fill-rule: evenodd;
      }

      .cls-2 {
        fill: #ce936c;
      }

      .cls-3 {
        fill: #274d83;
      }

      .cls-4 {
        fill: #4a2813;
      }

      .cls-5 {
        fill: #da1414;
      }

      .cls-6 {
        fill: #8f261b;
      }

      .cls-7 {
        fill: #09c;
      }

      .cls-8 {
        fill: url(#radial-gradient);
      }

      .cls-9 {
        fill: #8d4f25;
      }

      .cls-10 {
        fill: #fff;
      }

      .cls-11 {
        fill: #b11;
      }

      .cls-12 {
        fill: #5c4034;
      }

      .cls-13 {
        fill: #070101;
      }

      .cls-14 {
        fill: #3c73c4;
      }

      .cls-15 {
        fill: #deaa76;
      }

      .cls-16 {
        fill: #96281d;
      }

      .cls-17 {
        fill: #cf8841;
      }

      .cls-18 {
        fill: #631c14;
      }

      .cls-19 {
        fill: #484240;
      }
    </style>
    <radialGradient id="radial-gradient" cx="-53.65" cy="633.09" fx="-53.65" fy="633.09" r=".8" gradientTransform="translate(1701.42 19907.24) scale(31.41 -31.41)" gradientUnits="userSpaceOnUse">
      <stop offset="0" stop-color="#fcf5f1"/>
      <stop offset="1" stop-color="#f4e2d7"/>
    </radialGradient>
  </defs>
  <g id="Layer_2" data-name="Layer 2">
    <g id="joker">
      <path class="cls-12" d="m32.42,3.6v38.42h-1.2v1.2h-1.2v1.2h-1.2v1.2H3.6v-1.2h-1.2v-1.2h-1.2v-1.2H0V3.6h1.2v-1.2h1.2v-1.2h1.2V0h25.21v1.2h1.2v1.2h1.2v1.2h1.2Zm-2.4-1.2h-1.2v-1.2H3.6v1.2h-1.2v1.2h-1.2v38.42h1.2v1.2h1.2v1.2h25.21v-1.2h1.2v-1.2h1.2V3.6h-1.2v-1.2Z"/>
      <polygon class="cls-8" points="30.01 2.4 30.01 3.6 31.21 3.6 31.21 42.02 30.01 42.02 30.01 43.22 28.81 43.22 28.81 44.42 3.6 44.42 3.6 43.22 2.4 43.22 2.4 42.02 1.2 42.02 1.2 3.6 2.4 3.6 2.4 2.4 3.6 2.4 3.6 1.2 28.81 1.2 28.81 2.4 30.01 2.4"/>
      <path class="cls-16" d="m18.01,12.01h-2.4v-6h3.6v1.2h-2.4v1.2h1.2v1.2h-1.2v1.2h2.4v1.2h-1.2Zm3.6,0h-1.2v-6h3.6v2.4h-1.2v1.2h1.2v2.4h-1.2v-2.4h-1.2v2.4Zm-8.4,0v-2.4h-1.2v2.4h-1.2v-6h1.2v1.2h1.2v-1.2h1.2v1.2h-1.2v2.4h1.2v2.4h-1.2Zm-8.4,0H1.2v-2.4h1.2v1.2h1.2v-4.8h1.2v6Zm4.8,0h-3.6v-6h3.6v6Zm13.21-4.8h-1.2v1.2h1.2v-1.2Zm-15.61,0v3.6h1.2v-3.6h-1.2Z"/>
      <path class="cls-13" d="m21.61,12.01v1.2h-1.2v-1.2h1.2Zm-3.6,0h1.2v1.2h-1.2v-1.2Zm-2.4,0h1.2v1.2h-1.2v-1.2Zm7.2,18.01h-1.2v-3.6h2.4v1.2h1.2v1.2h1.2v2.4h-1.2v1.2h-1.2v-1.2h1.2v-2.4h-1.2v-1.2h-1.2v2.4Zm6,10.81v-1.2h1.2v-3.6h-1.2v-1.2h1.2v-1.2h1.2v7.2h-2.4Z"/>
      <path class="cls-11" d="m13.21,16.81H2.4v6h-1.2v-10.81h13.21v4.8h-1.2Zm-3.6-1.2v-1.2h-1.2v1.2h1.2Zm-2.4,0v-1.2h-1.2v1.2h1.2Zm4.8-1.2h-1.2v1.2h1.2v-1.2Zm-7.2,1.2v-1.2h-1.2v1.2h1.2Z"/>
      <path class="cls-7" d="m12.01,14.41v1.2h-1.2v-1.2h1.2Zm-4.8,1.2h-1.2v-1.2h1.2v1.2Zm2.4,0h-1.2v-1.2h1.2v1.2Zm-4.8,0h-1.2v-1.2h1.2v1.2Z"/>
      <path class="cls-9" d="m7.2,33.62h-1.2v-1.2h-1.2v-1.2h-1.2v-1.2h-1.2v-13.21h1.2v13.21h1.2v1.2h1.2v1.2h1.2v1.2Zm2.4-1.2v-1.2h1.2v-1.2h1.2v-10.8h-1.2v6h-2.4v-1.2h1.2v-6h2.4v-1.2h1.2v13.21h-1.2v1.2h-1.2v1.2h-1.2Zm-3.6-4.8h4.8v1.2h-4.8v-1.2h-1.2v-1.2h1.2v1.2Zm-1.2-8.4h1.2v1.2h-1.2v-1.2Zm3.6,0h-2.4v-1.2h2.4v1.2Z"/>
      <path class="cls-10" d="m10.81,21.61v-1.2h1.2v1.2h-1.2Zm-2.4,0h-1.2v-1.2h1.2v1.2Z"/>
      <path class="cls-6" d="m18.01,19.21h3.6v6h-8.4v-1.2h7.2v-3.6h-1.2v2.4h-6v-1.2h4.8v-2.4Zm3.6,18.01v3.6H2.4v-10.81h1.2v9.6h6v-1.2h-4.8v-6h1.2v3.6h15.61v1.2Zm-10.81,2.4h2.4v-1.2h-2.4v1.2Zm3.6-1.2v1.2h6v-2.4h-7.2v1.2h1.2Z"/>
      <path class="cls-1" d="m4.8,32.42v6h4.8v1.2H3.6v-8.4h1.2v1.2Zm8.4-9.6h6v-2.4h1.2v3.6h-7.2v-1.2Zm1.2,15.61h-1.2v-1.2h7.2v2.4h-6v-1.2Z"/>
      <polygon class="cls-4" points="9.6 32.42 9.6 34.82 7.2 34.82 7.2 33.62 7.2 32.42 7.2 30.01 9.6 30.01 9.6 31.21 9.6 32.42"/>
      <path class="cls-19" d="m24.01,31.21v-1.2h-1.2v-2.4h1.2v1.2h1.2v2.4h-1.2Zm4.8,8.4v-3.6h1.2v3.6h-1.2Z"/>
      <path class="cls-3" d="m18.01,36.02h-1.2v-1.2h1.2v-1.2h1.2v-1.2h1.2v-1.2h1.2v-1.2h2.4v1.2h-2.4v1.2h-1.2v1.2h-1.2v1.2h-1.2v1.2Zm10.81,3.6v1.2h-7.2v-1.2h6v-2.4h-6v-1.2h-1.2v-1.2h1.2v-1.2h1.2v-1.2h1.2v1.2h-1.2v1.2h-1.2v1.2h7.2v3.6Z"/>
      <path class="cls-14" d="m24.01,31.21v1.2h-1.2v1.2h-1.2v1.2h-1.2v1.2h-2.4v-1.2h1.2v-1.2h1.2v-1.2h1.2v-1.2h2.4Zm-2.4,8.4v-2.4h6v2.4h-6Z"/>
      <path class="cls-5" d="m28.39,7.26v1.2h-1.2v-1.2h1.2Zm1.2,7.2v1.2h-1.2v-1.2h1.2Zm-3.6,2.4h-1.2v-1.2h1.2v1.2Zm2.4,4.8h-1.2v-1.2h1.2v1.2Zm-3.6-2.4v1.2h-1.2v-1.2h1.2Z"/>
      <path class="cls-18" d="m16.39,2.46h1.2v1.2h-1.2v-1.2Zm10.81,9.6v1.2h-1.2v-1.2h1.2Zm0,6h1.2v1.2h-1.2v-1.2Zm2.4,8.4h-1.2v-1.2h1.2v1.2Zm-14.41-8.4h1.2v1.2h-1.2v-1.2Zm2.4,8.4v1.2h-1.2v-1.2h1.2Z"/>
      <path class="cls-15" d="m19.21,19.21h-1.2v-4.8h1.2v4.8Zm-9.6,0h-1.2v-1.2h-2.4v-1.2h6v1.2h-2.4v1.2Zm1.2,2.4h1.2v8.4h-6v-1.2h4.8v-1.2h-4.8v-6h3.6v2.4h-1.2v1.2h2.4v-3.6Zm0,18.01v-1.2h2.4v1.2h-2.4Z"/>
      <path class="cls-17" d="m20.41,19.21h-1.2v-2.4h1.2v2.4Zm-12.01,0h1.2v2.4h-1.2v-1.2h-1.2v1.2h-1.2v4.8h-1.2v1.2h1.2v2.4h1.2v2.4h-1.2v-1.2h-1.2v-1.2h-1.2v-13.21h2.4v2.4h2.4Zm-3.6,0v1.2h1.2v-1.2h-1.2Zm7.2,1.2h-1.2v-1.2h1.2v1.2Zm-2.4,10.81v-1.2h1.2v1.2h-1.2Z"/>
      <rect class="cls-2" x="3.6" y="40.82" width="26.41" height="1.2"/>
    </g>
  </g>
</svg>