<?xml version="1.0" encoding="UTF-8"?>
<svg id="_图层_2" data-name="图层 2" xmlns="http://www.w3.org/2000/svg" xmlns:xlink="http://www.w3.org/1999/xlink" viewBox="0 0 32.41 45.62">
  <defs>
    <style>
      .cls-1 {
        fill: #e9a7a7;
      }

      .cls-1, .cls-2, .cls-3, .cls-4, .cls-5, .cls-6, .cls-7, .cls-8, .cls-9, .cls-10, .cls-11, .cls-12, .cls-13, .cls-14, .cls-15, .cls-16, .cls-17, .cls-18 {
        stroke-width: 0px;
      }

      .cls-1, .cls-2, .cls-3, .cls-4, .cls-5, .cls-6, .cls-7, .cls-9, .cls-10, .cls-11, .cls-12, .cls-13, .cls-15, .cls-17, .cls-18 {
        fill-rule: evenodd;
      }

      .cls-2 {
        fill: #505c8d;
      }

      .cls-3 {
        fill: #b02d2d;
      }

      .cls-4 {
        fill: #384161;
      }

      .cls-5 {
        fill: #cc8033;
      }

      .cls-6, .cls-16 {
        fill: #322323;
      }

      .cls-7 {
        fill: #40110d;
      }

      .cls-8 {
        fill: #7095cb;
      }

      .cls-9 {
        fill: #d77;
      }

      .cls-10 {
        fill: url(#radial-gradient);
      }

      .cls-11 {
        fill: #5f1818;
      }

      .cls-12 {
        fill: #f8ede7;
      }

      .cls-13 {
        fill: #fff;
      }

      .cls-14 {
        fill: #a7bfcf;
      }

      .cls-15 {
        fill: #5c4034;
      }

      .cls-17 {
        fill: #deaa76;
      }

      .cls-18 {
        fill: #c63131;
      }
    </style>
    <radialGradient id="radial-gradient" cx="-488.33" cy="477.73" fx="-488.33" fy="477.73" r=".8" gradientTransform="translate(15354.23 15027.44) scale(31.41 -31.41)" gradientUnits="userSpaceOnUse">
      <stop offset="0" stop-color="#fcf5f1"/>
      <stop offset="1" stop-color="#f4e2d7"/>
    </radialGradient>
  </defs>
  <g id="Layer_2" data-name="Layer 2">
    <g id="m13">
      <path class="cls-15" d="m31.21,3.6h1.2v38.42h-1.2v1.2h-1.2v1.2h-1.2v1.2H3.6v-1.2h-1.2v-1.2h-1.2v-1.2H0V3.6h1.2v-1.2h1.2v-1.2h1.2V0h25.21v1.2h1.2v1.2h1.2v1.2Zm-1.2-1.2h-1.2v-1.2H3.6v1.2h-1.2v1.2h-1.2v38.42h1.2v1.2h1.2v1.2h25.21v-1.2h1.2v-1.2h1.2V3.6h-1.2v-1.2Z"/>
      <polygon class="cls-10" points="30.01 2.4 30.01 3.6 31.21 3.6 31.21 42.02 30.01 42.02 30.01 43.22 28.81 43.22 28.81 44.42 3.6 44.42 3.6 43.22 2.4 43.22 2.4 42.02 1.2 42.02 1.2 3.6 2.4 3.6 2.4 2.4 3.6 2.4 3.6 1.2 28.81 1.2 28.81 2.4 30.01 2.4"/>
      <polygon class="cls-16" points="4.16 5.28 5.37 5.28 5.37 7.72 6.58 7.72 6.58 5.28 7.8 5.28 7.8 7.72 6.58 7.72 6.58 8.91 7.8 8.91 7.8 11.33 6.58 11.33 6.58 8.91 5.37 8.91 5.37 11.33 4.16 11.33 4.16 5.28"/>
      <polygon class="cls-6" points="3.6 28.81 3.6 30.01 4.8 30.01 4.8 31.22 6 31.22 6 32.42 7.2 32.42 7.2 33.62 8.4 33.62 8.4 34.82 9.6 34.82 9.6 36.02 10.81 36.02 10.81 37.22 12 37.22 12 38.42 13.21 38.42 13.21 39.62 14.41 39.62 14.41 40.82 15.61 40.82 15.61 42.02 16.81 42.02 16.81 43.22 18.01 43.22 18.01 44.42 3.6 44.42 3.6 43.22 2.4 43.22 2.4 42.02 1.2 42.02 1.2 28.81 3.6 28.81"/>
      <polygon class="cls-4" points="17.83 37.34 17.83 36.14 20.23 36.14 21.43 36.14 21.43 33.74 20.23 33.74 17.83 33.74 17.83 32.54 20.23 32.54 21.43 32.54 22.63 32.54 22.63 37.34 21.43 37.34 20.23 37.34 17.83 37.34"/>
      <path class="cls-3" d="m7.02,20.53v1.2h1.2v1.2h-2.4v-1.2h-1.2v-1.2h2.4Zm0-1.2v-1.2h8.4v1.2H7.02Z"/>
      <path class="cls-11" d="m7.02,19.33h8.4v-1.2H7.02v1.2Zm0,1.2h-2.4v1.2h1.2v1.2h-1.2v-1.2h-1.2v-1.2h-1.2v-1.2h3.6v-1.2h1.2v-1.2h8.4v1.2h1.2v1.2h3.6v1.2h-1.2v1.2h-1.2v1.2h-1.2v-1.2h1.2v-1.2H7.02Z"/>
      <polygon class="cls-13" points="14.23 22.93 13.03 22.93 13.03 21.73 14.23 21.73 14.23 20.53 15.43 20.53 15.43 21.73 14.23 21.73 14.23 22.93"/>
      <path class="cls-9" d="m7.02,20.53h7.2v1.2h-1.2v1.2h-4.8v-1.2h-1.2v-1.2Zm-2.4,8.4v1.2h-1.2v-1.2h1.2Zm10.8-8.4h2.4v1.2h-1.2v1.2h-2.4v-1.2h1.2v-1.2Zm4.8,12.01h-2.4v-3.6h2.4v3.6Zm-2.4,4.8h2.4v1.2h-1.2v2.4h-1.2v1.2h-2.4v-1.2h-1.2v-1.2h1.2v-1.2h1.2v-1.2h1.2Z"/>
      <path class="cls-2" d="m13.03,24.13v1.2h-6v-1.2h6Zm1.2,1.2v-1.2h1.2v1.2h-1.2Zm6,10.81h-2.4v-2.4h2.4v2.4Z"/>
      <path class="cls-7" d="m20.23,38.54v-1.2h1.2v2.4h-1.2v2.4h-1.2v2.4h-2.4v-1.2h-1.2v-1.2h-1.2v-1.2h-1.2v-1.2h-1.2v-1.2h-1.2v-1.2h-1.2v-1.2h-1.2v-1.2h-1.2v-1.2h-1.2v-1.2h-1.2v-1.2h-1.2v-1.2h-1.2v-1.2h-1.2v-2.4h3.6v-1.2h1.2v-2.4h10.8v2.4h1.2v1.2h3.6v6h-1.2v-4.8h-2.4v9.6h-1.2v1.2h-1.2v1.2h-1.2v1.2h1.2v1.2h1.2v1.2h1.2v-1.2h1.2v-2.4h1.2v-1.2ZM3.42,28.93v1.2h1.2v-2.4h-2.4v1.2h1.2Zm10.8-4.8h-7.2v1.2h8.4v-1.2h-1.2Zm-3.6,9.6h1.2v-1.2h2.4v1.2h-1.2v1.2h1.2v-1.2h1.2v-4.8h-1.2v2.4h-2.4v-1.2h1.2v-2.4h2.4v-1.2H7.02v4.8h1.2v1.2h1.2v1.2h1.2Zm-1.2-6h1.2v1.2h-1.2v-1.2Z"/>
      <rect class="cls-14" x="13.03" y="24.13" width="1.2" height="1.2"/>
      <path class="cls-17" d="m15.43,32.54h-3.6v1.2h-1.2v-2.4h-1.2v-1.2h-1.2v-3.6h7.2v1.2h-2.4v2.4h-1.2v1.2h2.4v-2.4h1.2v3.6Zm-6-4.8v1.2h1.2v-1.2h-1.2Z"/>
      <path class="cls-5" d="m8.22,26.53v3.6h1.2v1.2h1.2v2.4h-1.2v-1.2h-1.2v-1.2h-1.2v-4.8h1.2Zm6,6h1.2v1.2h-1.2v1.2h-1.2v-1.2h1.2v-1.2Z"/>
      <path class="cls-1" d="m4.62,28.93h-2.4v-1.2h2.4v1.2Zm15.61,0h-2.4v-1.2h2.4v1.2Z"/>
      <rect class="cls-8" x="20.23" y="33.74" width="1.2" height="2.4"/>
      <path class="cls-18" d="m20.23,39.74h-1.2v-1.2h1.2v1.2Zm-1.2,1.2v1.2h-1.2v1.2h-1.2v-1.2h1.2v-1.2h1.2Z"/>
      <polygon class="cls-12" points="3.74 38.63 3.74 38.22 4.98 38.22 4.98 36.98 5.4 36.98 5.4 36.56 6.64 36.56 6.64 36.98 7.05 36.98 7.05 38.22 8.29 38.22 8.29 38.63 8.7 38.63 8.7 39.87 8.29 39.87 8.29 40.28 6.22 40.28 6.22 40.69 6.64 40.69 6.64 41.93 7.05 41.93 7.05 42.35 4.98 42.35 4.98 41.93 5.4 41.93 5.4 40.69 5.81 40.69 5.81 40.28 3.74 40.28 3.74 39.87 3.33 39.87 3.33 38.63 3.74 38.63"/>
    </g>
  </g>
</svg>