<?xml version="1.0" encoding="UTF-8"?>
<svg id="_图层_2" data-name="图层 2" xmlns="http://www.w3.org/2000/svg" xmlns:xlink="http://www.w3.org/1999/xlink" viewBox="0 0 32.42 45.62">
  <defs>
    <style>
      .cls-1 {
        fill: url(#radial-gradient);
      }

      .cls-1, .cls-2, .cls-3, .cls-4 {
        stroke-width: 0px;
      }

      .cls-1, .cls-2, .cls-4 {
        fill-rule: evenodd;
      }

      .cls-2 {
        fill: #5c4034;
      }

      .cls-3 {
        fill: #322323;
      }

      .cls-4 {
        fill: #31211c;
      }
    </style>
    <radialGradient id="radial-gradient" cx="-211.71" cy="477.73" fx="-211.71" fy="477.73" r=".8" gradientTransform="translate(6665.5 15028.11) scale(31.41 -31.41)" gradientUnits="userSpaceOnUse">
      <stop offset="0" stop-color="#fcf5f1"/>
      <stop offset="1" stop-color="#f4e2d7"/>
    </radialGradient>
  </defs>
  <g id="Layer_2" data-name="Layer 2">
    <g id="m6">
      <path class="cls-2" d="m31.21,3.6h1.2v38.42h-1.2v1.2h-1.2v1.2h-1.2v1.2H3.6v-1.2h-1.2v-1.2h-1.2v-1.2H0V3.6h1.2v-1.2h1.2v-1.2h1.2V0h25.21v1.2h1.2v1.2h1.2v1.2Zm-1.2-1.2h-1.2v-1.2H3.6v1.2h-1.2v1.2h-1.2v38.42h1.2v1.2h1.2v1.2h25.21v-1.2h1.2v-1.2h1.2V3.6h-1.2v-1.2Z"/>
      <polygon class="cls-1" points="30.01 2.4 30.01 3.6 31.21 3.6 31.21 42.02 30.01 42.02 30.01 43.22 28.81 43.22 28.81 44.42 3.6 44.42 3.6 43.22 2.4 43.22 2.4 42.02 1.2 42.02 1.2 3.6 2.4 3.6 2.4 2.4 3.6 2.4 3.6 1.2 28.81 1.2 28.81 2.4 30.01 2.4"/>
      <path class="cls-3" d="m6.56,8.93h-1.21v1.21h2.42v1.21h-3.65v-6.06h1.23v2.43h1.21v1.21Zm0-1.21h1.2v2.42s-1.2,0-1.2,0v-2.42Z"/>
      <polygon class="cls-4" points="12.91 15.54 12.91 14.88 13.57 14.88 13.57 14.22 14.89 14.22 14.89 13.56 17.53 13.56 17.53 14.22 18.85 14.22 18.85 14.88 19.51 14.88 19.51 15.54 20.17 15.54 20.17 18.85 21.49 18.85 21.49 19.51 22.81 19.51 22.81 20.17 23.47 20.17 23.47 20.83 24.13 20.83 24.13 24.13 23.47 24.13 23.47 24.79 22.81 24.79 22.81 25.45 22.15 25.45 22.15 26.11 18.19 26.11 18.19 25.45 17.53 25.45 17.53 24.79 16.87 24.79 16.87 27.43 17.53 27.43 17.53 28.75 18.19 28.75 18.19 30.73 14.23 30.73 14.23 28.75 14.89 28.75 14.89 27.43 15.55 27.43 15.55 24.79 14.89 24.79 14.89 25.45 14.23 25.45 14.23 26.11 10.26 26.11 10.26 25.45 9.6 25.45 9.6 24.79 8.94 24.79 8.94 24.13 8.28 24.13 8.28 20.83 8.94 20.83 8.94 20.17 9.6 20.17 9.6 19.51 10.92 19.51 10.92 18.85 12.25 18.85 12.25 15.54 12.91 15.54"/>
    </g>
  </g>
</svg>