<?xml version="1.0" encoding="UTF-8"?>
<svg id="_图层_2" data-name="图层 2" xmlns="http://www.w3.org/2000/svg" xmlns:xlink="http://www.w3.org/1999/xlink" viewBox="0 0 32.42 45.62">
  <defs>
    <style>
      .cls-1 {
        fill: url(#radial-gradient);
      }

      .cls-1, .cls-2, .cls-3, .cls-4 {
        stroke-width: 0px;
      }

      .cls-1, .cls-2, .cls-4 {
        fill-rule: evenodd;
      }

      .cls-2 {
        fill: #5c4034;
      }

      .cls-3 {
        fill: #322323;
      }

      .cls-4 {
        fill: #31211c;
      }
    </style>
    <radialGradient id="radial-gradient" cx="-527.84" cy="425.33" fx="-527.84" fy="425.33" r=".8" gradientTransform="translate(16595.03 13381.72) scale(31.41 -31.41)" gradientUnits="userSpaceOnUse">
      <stop offset="0" stop-color="#fcf5f1"/>
      <stop offset="1" stop-color="#f4e2d7"/>
    </radialGradient>
  </defs>
  <g id="Layer_2" data-name="Layer 2">
    <g id="t1">
      <path class="cls-2" d="m31.21,3.6h1.2v38.42h-1.2v1.2h-1.2v1.2h-1.2v1.2H3.6v-1.2h-1.2v-1.2h-1.2v-1.2H0V3.6h1.2v-1.2h1.2v-1.2h1.2V0h25.21v1.2h1.2v1.2h1.2v1.2Zm-1.2-1.2h-1.2v-1.2H3.6v1.2h-1.2v1.2h-1.2v38.42h1.2v1.2h1.2v1.2h25.21v-1.2h1.2v-1.2h1.2V3.6h-1.2v-1.2Z"/>
      <polygon class="cls-1" points="30.01 2.4 30.01 3.6 31.21 3.6 31.21 42.02 30.01 42.02 30.01 43.22 28.81 43.22 28.81 44.42 3.6 44.42 3.6 43.22 2.4 43.22 2.4 42.02 1.2 42.02 1.2 3.6 2.4 3.6 2.4 2.4 3.6 2.4 3.6 1.2 28.81 1.2 28.81 2.4 30.01 2.4"/>
      <path class="cls-3" d="m4.13,5.28h3.63v6.05h-1.23v-4.82h-1.21v4.82h-1.19v-6.05Zm1.19,2.43h1.21v1.19h-1.21v-1.19Z"/>
      <polygon class="cls-4" points="12.27 19.26 12.27 18.38 13.15 18.38 13.15 17.5 14.03 17.5 14.03 16.62 14.91 16.62 14.91 15.74 15.79 15.74 15.79 14.86 16.67 14.86 16.67 15.74 17.55 15.74 17.55 16.62 18.43 16.62 18.43 17.5 19.31 17.5 19.31 18.38 20.19 18.38 20.19 19.26 21.07 19.26 21.07 20.14 21.95 20.14 21.95 21.02 22.83 21.02 22.83 21.9 23.71 21.9 23.71 23.66 24.6 23.66 24.6 27.18 23.71 27.18 23.71 28.06 18.43 28.06 18.43 27.18 17.55 27.18 17.55 26.3 16.67 26.3 16.67 28.95 17.55 28.95 17.55 31.59 18.43 31.59 18.43 33.35 14.03 33.35 14.03 31.59 14.91 31.59 14.91 28.95 15.79 28.95 15.79 26.3 14.91 26.3 14.91 27.18 14.03 27.18 14.03 28.06 8.75 28.06 8.75 27.18 7.87 27.18 7.87 23.66 8.75 23.66 8.75 21.9 9.63 21.9 9.63 21.02 10.51 21.02 10.51 20.14 11.39 20.14 11.39 19.26 12.27 19.26"/>
    </g>
  </g>
</svg>