<?xml version="1.0" encoding="UTF-8"?>
<svg id="_图层_2" data-name="图层 2" xmlns="http://www.w3.org/2000/svg" xmlns:xlink="http://www.w3.org/1999/xlink" viewBox="0 0 32.41 45.62">
  <defs>
    <style>
      .cls-1 {
        fill: #b02d2d;
      }

      .cls-1, .cls-2, .cls-3, .cls-4, .cls-5, .cls-6, .cls-7, .cls-8, .cls-9, .cls-10, .cls-11, .cls-12, .cls-13, .cls-14, .cls-15, .cls-16, .cls-17 {
        stroke-width: 0px;
      }

      .cls-1, .cls-2, .cls-3, .cls-4, .cls-5, .cls-7, .cls-8, .cls-9, .cls-11, .cls-12, .cls-13, .cls-14, .cls-15, .cls-17 {
        fill-rule: evenodd;
      }

      .cls-2 {
        fill: #792020;
      }

      .cls-3 {
        fill: #cc8033;
      }

      .cls-4, .cls-16 {
        fill: #322323;
      }

      .cls-5 {
        fill: #40110d;
      }

      .cls-6 {
        fill: #fed9a3;
      }

      .cls-7 {
        fill: #960;
      }

      .cls-8 {
        fill: url(#radial-gradient);
      }

      .cls-9 {
        fill: #db8402;
      }

      .cls-10 {
        fill: #965c25;
      }

      .cls-11 {
        fill: #f8ede7;
      }

      .cls-12 {
        fill: #fff;
      }

      .cls-13 {
        fill: #5c4034;
      }

      .cls-14 {
        fill: #7a94b8;
      }

      .cls-15 {
        fill: #4e688f;
      }

      .cls-17 {
        fill: #deaa76;
      }
    </style>
    <radialGradient id="radial-gradient" cx="-409.29" cy="425.33" fx="-409.29" fy="425.33" r=".8" gradientTransform="translate(12871.63 13381.72) scale(31.41 -31.41)" gradientUnits="userSpaceOnUse">
      <stop offset="0" stop-color="#fcf5f1"/>
      <stop offset="1" stop-color="#f4e2d7"/>
    </radialGradient>
  </defs>
  <g id="Layer_2" data-name="Layer 2">
    <g id="t11">
      <path class="cls-13" d="m31.21,3.6h1.2v38.42h-1.2v1.2h-1.2v1.2h-1.2v1.2H3.6v-1.2h-1.2v-1.2h-1.2v-1.2H0V3.6h1.2v-1.2h1.2v-1.2h1.2V0h25.21v1.2h1.2v1.2h1.2v1.2Zm-1.2-1.2h-1.2v-1.2H3.6v1.2h-1.2v1.2h-1.2v38.42h1.2v1.2h1.2v1.2h25.21v-1.2h1.2v-1.2h1.2V3.6h-1.2v-1.2Z"/>
      <polygon class="cls-8" points="30.01 2.4 30.01 3.6 31.21 3.6 31.21 42.02 30.01 42.02 30.01 43.22 28.81 43.22 28.81 44.42 3.6 44.42 3.6 43.22 2.4 43.22 2.4 42.02 1.2 42.02 1.2 3.6 2.4 3.6 2.4 2.4 3.6 2.4 3.6 1.2 28.81 1.2 28.81 2.4 30.01 2.4"/>
      <polygon class="cls-16" points="4.13 5.28 7.75 5.28 7.75 11.33 4.13 11.33 4.13 8.91 5.34 8.91 5.34 10.12 6.54 10.12 6.54 6.49 4.13 6.49 4.13 5.28"/>
      <polygon class="cls-4" points="2.4 26.41 2.4 27.61 3.6 27.61 3.6 28.81 4.8 28.81 4.8 30.01 6 30.01 6 31.21 7.2 31.21 7.2 32.42 8.4 32.42 8.4 33.62 9.6 33.62 9.6 34.82 10.8 34.82 10.8 36.02 12.01 36.02 12.01 37.22 13.21 37.22 13.21 38.42 14.41 38.42 14.41 39.62 15.61 39.62 15.61 40.82 16.81 40.82 16.81 42.02 18.01 42.02 18.01 43.22 19.21 43.22 19.21 44.42 3.6 44.42 3.6 43.22 2.4 43.22 2.4 42.02 1.2 42.02 1.2 26.41 2.4 26.41"/>
      <path class="cls-5" d="m13.21,37.22h-1.2v-1.2h-1.2v-1.2h-1.2v-1.2h-1.2v-1.2h-1.2v-1.2h-1.2v-1.2h-1.2v-1.2h-1.2v-1.2h-1.2v-1.2h-1.2v-1.2h8.4v-1.2h-1.2v-1.2h-1.2v-6h9.6v6h-1.2v2.4h4.8v10.81h1.2v-1.2h2.4v1.2h1.2v4.8h-3.6v2.4h-1.2v1.2h-1.2v-1.2h-1.2v-1.2h-1.2v-1.2h-1.2v-1.2h-1.2v-1.2h1.2v1.2h1.2v1.2h1.2v1.2h1.2v1.2h1.2v-6h-1.2v-10.8h-3.6v3.6h-1.2v1.2h-3.6v-1.2h-1.2v-3.6H3.6v1.2h1.2v1.2h1.2v1.2h1.2v1.2h1.2v1.2h1.2v1.2h1.2v1.2h1.2v1.2h1.2v1.2Zm-1.2-8.4v1.2h1.2v-1.2h1.2v-4.8h-1.2v-1.2h1.2v-4.8h-1.2v1.2h-2.4v3.6h1.2v1.2h-1.2v4.8h1.2Zm9.6,9.6v1.2h2.4v-2.4h-1.2v-1.2h-1.2v2.4Z"/>
      <path class="cls-17" d="m13.21,24.01v2.4h-1.2v2.4h-1.2v-4.8h1.2v-1.2h-1.2v-3.6h2.4v-1.2h1.2v4.8h-1.2v1.2Zm9.6,13.21v1.2h-1.2v-2.4h1.2v1.2Z"/>
      <path class="cls-3" d="m12.01,27.61h1.2v-3.6h1.2v4.8h-1.2v1.2h-1.2v-2.4Zm10.8,9.6h1.2v2.4h-2.4v-1.2h1.2v-1.2Z"/>
      <polygon class="cls-14" points="19.21 31.21 18.01 31.21 18.01 30.01 16.81 30.01 16.81 31.21 18.01 31.21 18.01 32.42 16.81 32.42 16.81 33.62 15.61 33.62 15.61 32.42 14.41 32.42 14.41 33.62 15.61 33.62 15.61 34.82 14.41 34.82 14.41 36.02 13.21 36.02 12.01 36.02 12.01 34.82 10.8 34.82 10.8 33.62 10.8 32.42 12.01 32.42 12.01 31.21 14.41 31.21 14.41 30.01 15.61 30.01 15.61 28.81 19.21 28.81 19.21 31.21"/>
      <path class="cls-7" d="m4.8,27.61h4.8v1.2h-4.8v-1.2Zm14.41,1.2h-3.6v-1.2h3.6v1.2Z"/>
      <path class="cls-12" d="m15.61,33.62h-1.2v-1.2h1.2v1.2Zm2.4-2.4h-1.2v-1.2h1.2v1.2Z"/>
      <rect class="cls-10" x="12.01" y="26.41" width="1.2" height="1.2"/>
      <path class="cls-9" d="m4.8,26.41h4.8v1.2h-4.8v-1.2Zm14.41,1.2h-3.6v-1.2h3.6v1.2Z"/>
      <path class="cls-1" d="m9.6,32.42h-1.2v-1.2h-1.2v-1.2h-1.2v-1.2h3.6v1.2h1.2v2.4h-1.2Zm6,7.2v-2.4h1.2v-1.2h1.2v-1.2h1.2v2.4h1.2v6h-1.2v-1.2h-1.2v-1.2h-1.2v-1.2h-1.2Z"/>
      <path class="cls-15" d="m12.01,31.21v1.2h-1.2v1.2h-1.2v-1.2h1.2v-1.2h1.2Zm1.2,6v-1.2h1.2v-1.2h1.2v-1.2h1.2v-1.2h1.2v-1.2h1.2v1.2h-1.2v1.2h-1.2v1.2h-1.2v1.2h-1.2v1.2h-1.2Z"/>
      <polygon class="cls-2" points="15.61 38.42 14.41 38.42 13.21 38.42 13.21 37.22 14.41 37.22 14.41 36.02 15.61 36.02 15.61 34.82 16.81 34.82 16.81 33.62 18.01 33.62 18.01 32.42 19.21 32.42 19.21 34.82 18.01 34.82 18.01 36.02 16.81 36.02 16.81 37.22 15.61 37.22 15.61 38.42"/>
      <rect class="cls-6" x="3.6" y="26.41" width="1.2" height="1.2"/>
      <polygon class="cls-11" points="7.04 36.8 7.57 36.8 7.57 37.33 8.09 37.33 8.09 37.85 8.61 37.85 8.61 38.38 9.14 38.38 9.14 39.95 8.61 39.95 8.61 40.47 7.57 40.47 7.57 39.95 7.04 39.95 7.04 41 7.57 41 7.57 42.05 5.99 42.05 5.99 41 6.52 41 6.52 39.95 5.99 39.95 5.99 40.47 4.95 40.47 4.95 39.95 4.42 39.95 4.42 38.38 4.95 38.38 4.95 37.85 5.47 37.85 5.47 37.33 5.99 37.33 5.99 36.8 6.52 36.8 6.52 36.28 7.04 36.28 7.04 36.8"/>
    </g>
  </g>
</svg>