<?xml version="1.0" encoding="UTF-8"?>
<svg id="_图层_2" data-name="图层 2" xmlns="http://www.w3.org/2000/svg" xmlns:xlink="http://www.w3.org/1999/xlink" viewBox="0 0 32.42 45.62">
  <defs>
    <style>
      .cls-1 {
        fill: url(#radial-gradient);
      }

      .cls-1, .cls-2, .cls-3, .cls-4 {
        stroke-width: 0px;
      }

      .cls-1, .cls-2, .cls-4 {
        fill-rule: evenodd;
      }

      .cls-2 {
        fill: #5c4034;
      }

      .cls-3 {
        fill: #322323;
      }

      .cls-4 {
        fill: #31211c;
      }
    </style>
    <radialGradient id="radial-gradient" cx="-53.65" cy="425.33" fx="-53.65" fy="425.33" r=".8" gradientTransform="translate(1701.28 13381.72) scale(31.41 -31.41)" gradientUnits="userSpaceOnUse">
      <stop offset="0" stop-color="#fcf5f1"/>
      <stop offset="1" stop-color="#f4e2d7"/>
    </radialGradient>
  </defs>
  <g id="Layer_2" data-name="Layer 2">
    <g id="t2">
      <path class="cls-2" d="m31.21,3.6h1.2v38.42h-1.2v1.2h-1.2v1.2h-1.2v1.2H3.6v-1.2h-1.2v-1.2h-1.2v-1.2H0V3.6h1.2v-1.2h1.2v-1.2h1.2V0h25.21v1.2h1.2v1.2h1.2v1.2Zm-1.2-1.2h-1.2v-1.2H3.6v1.2h-1.2v1.2h-1.2v38.42h1.2v1.2h1.2v1.2h25.21v-1.2h1.2v-1.2h1.2V3.6h-1.2v-1.2Z"/>
      <polygon class="cls-1" points="30.01 2.4 30.01 3.6 31.21 3.6 31.21 42.02 30.01 42.02 30.01 43.22 28.81 43.22 28.81 44.42 3.6 44.42 3.6 43.22 2.4 43.22 2.4 42.02 1.2 42.02 1.2 3.6 2.4 3.6 2.4 2.4 3.6 2.4 3.6 1.2 28.81 1.2 28.81 2.4 30.01 2.4"/>
      <polygon class="cls-3" points="4.12 7.72 6.56 7.72 6.56 6.51 4.12 6.51 4.12 5.29 7.75 5.29 7.75 8.91 5.35 8.91 5.35 10.14 7.75 10.14 7.75 11.35 4.12 11.35 4.12 7.72"/>
      <polygon class="cls-4" points="12.27 17.76 12.27 16.88 13.15 16.88 13.15 16 14.03 16 14.03 15.12 14.91 15.12 14.91 14.24 15.79 14.24 15.79 13.36 16.67 13.36 16.67 14.24 17.55 14.24 17.55 15.12 18.43 15.12 18.43 16 19.31 16 19.31 16.88 20.19 16.88 20.19 17.76 21.07 17.76 21.07 18.64 21.95 18.64 21.95 19.52 22.83 19.52 22.83 20.4 23.71 20.4 23.71 22.16 24.6 22.16 24.6 25.68 23.71 25.68 23.71 26.56 18.43 26.56 18.43 25.68 17.55 25.68 17.55 24.8 16.67 24.8 16.67 27.44 17.55 27.44 17.55 30.09 18.43 30.09 18.43 31.85 14.03 31.85 14.03 30.09 14.91 30.09 14.91 27.44 15.79 27.44 15.79 24.8 14.91 24.8 14.91 25.68 14.03 25.68 14.03 26.56 8.75 26.56 8.75 25.68 7.86 25.68 7.86 22.16 8.75 22.16 8.75 20.4 9.63 20.4 9.63 19.52 10.51 19.52 10.51 18.64 11.39 18.64 11.39 17.76 12.27 17.76"/>
    </g>
  </g>
</svg>