<?xml version="1.0" encoding="UTF-8"?>
<svg id="_图层_2" data-name="图层 2" xmlns="http://www.w3.org/2000/svg" xmlns:xlink="http://www.w3.org/1999/xlink" viewBox="0 0 32.42 45.62">
  <defs>
    <style>
      .cls-1 {
        fill: url(#radial-gradient);
      }

      .cls-1, .cls-2, .cls-3, .cls-4 {
        stroke-width: 0px;
      }

      .cls-1, .cls-2, .cls-4 {
        fill-rule: evenodd;
      }

      .cls-2 {
        fill: #5c4034;
      }

      .cls-3 {
        fill: #322323;
      }

      .cls-4 {
        fill: #31211c;
      }
    </style>
    <radialGradient id="radial-gradient" cx="-93.16" cy="425.34" fx="-93.16" fy="425.34" r=".8" gradientTransform="translate(2941.93 13382.37) scale(31.41 -31.41)" gradientUnits="userSpaceOnUse">
      <stop offset="0" stop-color="#fcf5f1"/>
      <stop offset="1" stop-color="#f4e2d7"/>
    </radialGradient>
  </defs>
  <g id="Layer_2" data-name="Layer 2">
    <g id="t3">
      <path class="cls-2" d="m31.21,3.6h1.2v38.42h-1.2v1.2h-1.2v1.2h-1.2v1.2H3.6v-1.2h-1.2v-1.2h-1.2v-1.2H0V3.6h1.2v-1.2h1.2v-1.2h1.2V0h25.21v1.2h1.2v1.2h1.2v1.2Zm-1.2-1.2h-1.2v-1.2H3.6v1.2h-1.2v1.2h-1.2v38.42h1.2v1.2h1.2v1.2h25.21v-1.2h1.2v-1.2h1.2V3.6h-1.2v-1.2Z"/>
      <polygon class="cls-1" points="30.01 2.4 30.01 3.6 31.21 3.6 31.21 42.02 30.01 42.02 30.01 43.22 28.81 43.22 28.81 44.42 3.6 44.42 3.6 43.22 2.4 43.22 2.4 42.02 1.2 42.02 1.2 3.6 2.4 3.6 2.4 2.4 3.6 2.4 3.6 1.2 28.81 1.2 28.81 2.4 30.01 2.4"/>
      <polygon class="cls-3" points="7.77 11.36 4.14 11.36 4.14 10.16 6.57 10.16 6.57 8.96 5.34 8.96 5.34 7.73 6.57 7.73 6.57 6.52 4.14 6.52 4.14 5.3 7.77 5.3 7.77 11.36"/>
      <polygon class="cls-4" points="12.27 18.12 12.27 17.24 13.15 17.24 13.15 16.36 14.03 16.36 14.03 15.48 14.91 15.48 14.91 14.6 15.79 14.6 15.79 13.72 16.67 13.72 16.67 14.6 17.55 14.6 17.55 15.48 18.43 15.48 18.43 16.36 19.31 16.36 19.31 17.24 20.19 17.24 20.19 18.12 21.07 18.12 21.07 19 21.95 19 21.95 19.88 22.83 19.88 22.83 20.76 23.71 20.76 23.71 22.52 24.59 22.52 24.59 26.04 23.71 26.04 23.71 26.92 18.43 26.92 18.43 26.04 17.55 26.04 17.55 25.16 16.67 25.16 16.67 27.8 17.55 27.8 17.55 30.45 18.43 30.45 18.43 32.21 14.03 32.21 14.03 30.45 14.91 30.45 14.91 27.8 15.79 27.8 15.79 25.16 14.91 25.16 14.91 26.04 14.03 26.04 14.03 26.92 8.74 26.92 8.74 26.04 7.86 26.04 7.86 22.52 8.74 22.52 8.74 20.76 9.62 20.76 9.62 19.88 10.51 19.88 10.51 19 11.39 19 11.39 18.12 12.27 18.12"/>
    </g>
  </g>
</svg>