<?xml version="1.0" encoding="UTF-8"?>
<svg id="_图层_2" data-name="图层 2" xmlns="http://www.w3.org/2000/svg" xmlns:xlink="http://www.w3.org/1999/xlink" viewBox="0 0 32.42 45.62">
  <defs>
    <style>
      .cls-1 {
        fill: url(#radial-gradient);
      }

      .cls-1, .cls-2, .cls-3 {
        fill-rule: evenodd;
      }

      .cls-1, .cls-2, .cls-3, .cls-4 {
        stroke-width: 0px;
      }

      .cls-2 {
        fill: #5c4034;
      }

      .cls-3, .cls-4 {
        fill: #96281d;
      }
    </style>
    <radialGradient id="radial-gradient" cx="-211.71" cy="528.3" fx="-211.71" fy="528.3" r=".8" gradientTransform="translate(6665.5 16616.5) scale(31.41 -31.41)" gradientUnits="userSpaceOnUse">
      <stop offset="0" stop-color="#fcf5f1"/>
      <stop offset="1" stop-color="#f4e2d7"/>
    </radialGradient>
  </defs>
  <g id="Layer_2" data-name="Layer 2">
    <g id="x6">
      <path class="cls-2" d="m31.21,3.6h1.2v38.42h-1.2v1.2h-1.2v1.2h-1.2v1.2H3.6v-1.2h-1.2v-1.2h-1.2v-1.2H0V3.6h1.2v-1.2h1.2v-1.2h1.2V0h25.21v1.2h1.2v1.2h1.2v1.2Zm-1.2-1.2h-1.2v-1.2H3.6v1.2h-1.2v1.2h-1.2v38.42h1.2v1.2h1.2v1.2h25.21v-1.2h1.2v-1.2h1.2V3.6h-1.2v-1.2Z"/>
      <polygon class="cls-1" points="30.01 2.4 30.01 3.6 31.21 3.6 31.21 42.02 30.01 42.02 30.01 43.22 28.81 43.22 28.81 44.42 3.6 44.42 3.6 43.22 2.4 43.22 2.4 42.02 1.2 42.02 1.2 3.6 2.4 3.6 2.4 2.4 3.6 2.4 3.6 1.2 28.81 1.2 28.81 2.4 30.01 2.4"/>
      <path class="cls-4" d="m6.56,8.93h-1.21v1.21h2.42v1.21h-3.65v-6.06h1.23v2.43h1.21v1.21Zm0-1.21h1.2v2.42s-1.2,0-1.2,0v-2.42Z"/>
      <polygon class="cls-3" points="20.56 16.42 22.01 16.42 22.01 17.14 22.74 17.14 22.74 17.87 23.46 17.87 23.46 21.5 22.74 21.5 22.74 22.96 22.01 22.96 22.01 23.68 21.28 23.68 21.28 25.13 20.56 25.13 20.56 25.86 19.83 25.86 19.83 27.31 19.1 27.31 19.1 28.04 18.38 28.04 18.38 28.77 17.65 28.77 17.65 29.49 16.92 29.49 16.92 30.22 15.47 30.22 15.47 29.49 14.74 29.49 14.74 28.77 14.02 28.77 14.02 28.04 13.29 28.04 13.29 27.31 12.56 27.31 12.56 25.86 11.84 25.86 11.84 25.13 11.11 25.13 11.11 23.68 10.38 23.68 10.38 22.96 9.66 22.96 9.66 21.5 8.93 21.5 8.93 17.87 9.66 17.87 9.66 17.14 10.38 17.14 10.38 16.42 11.84 16.42 11.84 15.69 14.02 15.69 14.02 16.42 15.36 16.42 15.36 17.18 16.92 17.18 16.92 16.42 18.38 16.42 18.38 15.69 20.56 15.69 20.56 16.42"/>
    </g>
  </g>
</svg>